<?xml version="1.0" encoding="UTF-8"?>
<svg version="1.1" xmlns="http://www.w3.org/2000/svg" width="616" height="364">
<path d="M0 0 C3.76063941 2.97717286 3.76063941 2.97717286 5 6 C5.04987907 8.12468433 5.04987907 8.12468433 4.75534058 10.48554993 C4.64495327 11.37172312 4.53456596 12.25789631 4.42083359 13.17092323 C3.68958952 18.08675137 2.82739165 22.97109148 1.91455078 27.85620117 C1.70464508 28.99733871 1.49473938 30.13847626 1.2784729 31.31419373 C0.58847501 35.05794529 -0.10772128 38.80050864 -0.8046875 42.54296875 C-1.16679851 44.4959928 -1.52890782 46.44901717 -1.8908025 48.40208131 C-3.02654432 54.53044171 -4.16696356 60.65791942 -5.31005859 66.78491211 C-6.48604565 73.08880764 -7.65280975 79.39436297 -8.81529987 85.70076007 C-9.81755594 91.1356692 -10.82616235 96.5693749 -11.83967984 102.00219518 C-12.44327634 105.23825332 -13.04360624 108.47485624 -13.63906479 111.71242332 C-14.30351755 115.32044379 -14.97833732 118.9263782 -15.65576172 122.53198242 C-15.84912109 123.59449219 -16.04248047 124.65700195 -16.24169922 125.75170898 C-17.27655053 131.19648535 -18.43595415 136.06479259 -21 141 C-24.23663768 142.61831884 -27.50020928 142.56448237 -31 142 C-33.46663999 140.40813945 -35.23956179 139.05216662 -37.3125 137.0625 C-38.42616541 136.0562748 -39.54076649 135.05108431 -40.65625 134.046875 C-41.20925781 133.53833984 -41.76226563 133.02980469 -42.33203125 132.50585938 C-44.91433751 130.17452667 -47.60811591 128.0010995 -50.3125 125.8125 C-51.21613281 125.07644531 -52.11976563 124.34039062 -53.05078125 123.58203125 C-53.69402344 123.05996094 -54.33726562 122.53789063 -55 122 C-60.37054923 140.13827004 -60.05163982 156.30709248 -51.39013672 173.234375 C-46.01719889 183.06356362 -38.22701217 190.04679329 -29.546875 196.94921875 C-22.5227469 202.60515012 -17.47896773 208.08412907 -15.25 217 C-14.33862618 227.93648586 -15.81078483 236.41917902 -23.046875 245.0234375 C-29.29236622 251.34387461 -36.19473766 253.61247884 -44.875 254.3125 C-57.93966134 253.92673244 -66.42704095 246.01171344 -75.44628906 237.47021484 C-76.90173771 236.0929817 -78.36845069 234.72768014 -79.8359375 233.36328125 C-105.82060066 208.45821011 -118.75422464 176.57780961 -121 141 C-121.86246338 141.16081055 -122.72492676 141.32162109 -123.61352539 141.48730469 C-138.48663927 143.73901972 -155.55036798 143.28796471 -170 139 C-171.03761475 138.70198486 -171.03761475 138.70198486 -172.09619141 138.39794922 C-196.86981162 131.17524055 -218.54131874 117.74022491 -238 101 C-238.65661621 100.43958008 -239.31323242 99.87916016 -239.98974609 99.30175781 C-243.79904858 96.04838738 -247.5790637 92.76408151 -251.33837891 89.453125 C-252.86232355 88.12040115 -254.40491517 86.80907853 -255.94921875 85.5 C-263.80208481 78.73878796 -270.15550416 71.71454103 -271 61 C-271.21115452 52.01273593 -269.02550426 44.43257772 -262.9140625 37.703125 C-255.86284475 31.10915346 -248.71897707 27.79262496 -239 28 C-230.79336537 29.09068822 -225.12118327 31.55318438 -219 37 C-217.87892818 37.96638183 -216.75639215 38.93106633 -215.6328125 39.89453125 C-210.63650827 44.19475191 -205.66182447 48.51894888 -200.73828125 52.90234375 C-182.83460192 68.67056781 -161.62028035 82.19560667 -136.9765625 81.359375 C-128.50232249 80.59353013 -120.668369 77.56668325 -113 74 C-114.52209661 70.27086332 -116.74032197 68.19368821 -119.75 65.5625 C-121.08611328 64.386875 -121.08611328 64.386875 -122.44921875 63.1875 C-124.46938154 61.45504799 -126.50230991 59.746743 -128.5625 58.0625 C-131 56 -131 56 -132 54 C-132.45402439 47.87067072 -132.45402439 47.87067072 -130.92944336 44.94702148 C-128.29578881 42.28937312 -125.35516373 41.36055128 -121.87890625 40.22265625 C-121.15996689 39.97517639 -120.44102753 39.72769653 -119.70030212 39.47271729 C-117.32488833 38.65750468 -114.94379369 37.86035522 -112.5625 37.0625 C-110.03970748 36.20068012 -107.51860611 35.3340297 -104.99752808 34.46720886 C-103.26100495 33.8704973 -101.5239566 33.2753122 -99.78640747 32.68159485 C-91.73711244 29.92756861 -83.73794664 27.04344213 -75.74508667 24.13040161 C-61.7097308 19.01721808 -47.63026232 14.05640747 -33.4921875 9.234375 C-29.31467216 7.80694426 -25.15480472 6.34190861 -21.0078125 4.828125 C-19.63206055 4.32998291 -19.63206055 4.32998291 -18.22851562 3.82177734 C-16.5649493 3.21681577 -14.90442493 2.60337813 -13.24804688 1.97900391 C-8.70167618 0.33390912 -4.90842571 -0.51154809 0 0 Z " fill="#FEFEFE" transform="translate(611,0)"/>
<path d="M0 0 C2.55130419 2.35468557 5.06208662 4.75071435 7.57763672 7.14355469 C22.71884915 20.88380084 39.87985873 34.70194054 59.57763672 41.14355469 C60.59277344 41.48 60.59277344 41.48 61.62841797 41.82324219 C75.35218759 45.59663271 89.69804546 43.4072613 102.14013672 36.83105469 C105.57763672 35.14355469 105.57763672 35.14355469 107.58935547 35.37792969 C110.85606396 36.63583708 112.97086843 38.83301007 115.57763672 41.14355469 C114.90473977 46.10122188 112.84019698 50.3058907 110.82763672 54.83105469 C104.20592549 70.20822186 100.8335537 85.60016348 98.57763672 102.14355469 C91.37602159 104.38346224 84.52303325 104.49105887 77.01513672 104.45605469 C75.1349585 104.44759521 75.1349585 104.44759521 73.21679688 104.43896484 C64.27385743 104.32167658 56.18964712 103.69919047 47.57763672 101.14355469 C46.88589355 100.94487793 46.19415039 100.74620117 45.48144531 100.54150391 C20.7078251 93.31879524 -0.96368202 79.8837796 -20.42236328 63.14355469 C-21.07897949 62.58313477 -21.7355957 62.02271484 -22.41210938 61.4453125 C-26.22141186 58.19194207 -30.00142698 54.9076362 -33.76074219 51.59667969 C-35.28468683 50.26395584 -36.82727845 48.95263322 -38.37158203 47.64355469 C-46.2244481 40.88234265 -52.57786744 33.85809571 -53.42236328 23.14355469 C-53.6335178 14.15629061 -51.44786754 6.57613241 -45.33642578 -0.15332031 C-31.73972878 -12.86832024 -13.68168955 -12.33899298 0 0 Z " fill="#00AEEF" transform="translate(393.42236328125,37.8564453125)"/>
<path d="M0 0 C2.6196837 1.64545969 4.40109472 2.82559634 6.1953125 5.37890625 C6.0563544 9.06129587 5.26480897 12.15121743 4.19140625 15.66796875 C-0.08664538 31.60580816 3.15230099 46.44259114 10.8984375 60.61328125 C16.11491339 69.52887602 23.65350419 75.9705721 31.6484375 82.328125 C38.6725656 87.98405637 43.71634477 93.46303532 45.9453125 102.37890625 C46.85668632 113.31539211 45.38452767 121.79808527 38.1484375 130.40234375 C31.90294628 136.72278086 25.00057484 138.99138509 16.3203125 139.69140625 C3.25565116 139.30563869 -5.23172845 131.39061969 -14.25097656 122.84912109 C-15.70642521 121.47188795 -17.17313819 120.10658639 -18.640625 118.7421875 C-41.02039655 97.29223454 -57.66192377 66.95174394 -58.95703125 35.703125 C-59.02007415 29.18168761 -58.69558325 22.83790045 -57.8046875 16.37890625 C-57.4746875 16.37890625 -57.1446875 16.37890625 -56.8046875 16.37890625 C-56.8046875 19.01890625 -56.8046875 21.65890625 -56.8046875 24.37890625 C-39.37856298 18.95938409 -23.0690248 12.93156384 -8.06713867 2.35229492 C-3.44746861 -0.76343664 -3.44746861 -0.76343664 0 0 Z " fill="#ACDEF8" transform="translate(549.8046875,114.62109375)"/>
<path d="M0 0 C3.87650882 3.45570358 7.02799904 7.40462654 10.1875 11.5 C10.66453369 12.11311035 11.14156738 12.7262207 11.63305664 13.35791016 C13.09230646 15.23584667 14.54648251 17.11762487 16 19 C16.83843832 20.08080934 17.67697504 21.16154236 18.515625 22.2421875 C23.1683733 28.26074256 27.7564348 34.32508808 32.31640625 40.4140625 C32.86590942 41.14729736 33.4154126 41.88053223 33.98156738 42.63598633 C35.32132234 44.42378332 36.66079451 46.21179139 38 48 C38.00586624 47.44289841 38.01173248 46.88579681 38.01777649 46.31181335 C38.08164414 40.52044539 38.16604596 34.72963656 38.26245117 28.9387207 C38.29573322 26.77668625 38.32375485 24.61456423 38.34643555 22.45239258 C38.37992108 19.34678782 38.432234 16.24198802 38.48828125 13.13671875 C38.49786613 11.68346443 38.49786613 11.68346443 38.50764465 10.20085144 C38.52743881 9.3001442 38.54723297 8.39943695 38.56762695 7.47143555 C38.57873001 6.67867722 38.58983307 5.88591888 38.60127258 5.06913757 C39.10442599 2.45809663 39.8750059 1.5674728 42 0 C45.5 -0.4375 45.5 -0.4375 49 0 C51.37161622 2.27466598 51.95891643 3.68635031 52.38768005 6.9597168 C52.39308304 8.11125244 52.39848602 9.26278809 52.40405273 10.44921875 C52.41673691 11.75737549 52.42942108 13.06553223 52.44248962 14.41333008 C52.44043827 15.83805499 52.43745031 17.26277883 52.43359375 18.6875 C52.43815584 20.15193931 52.44346149 21.61637649 52.44947815 23.08081055 C52.4584063 26.14738676 52.45598924 29.2137025 52.44604492 32.28027344 C52.43454816 36.20809727 52.45477783 40.13502303 52.48396206 44.06272888 C52.50231553 47.08595478 52.50203353 50.10896504 52.49632454 53.13223267 C52.49617126 54.58030458 52.50222151 56.02839104 52.51461601 57.47640991 C52.52950715 59.50115017 52.51622866 61.52603829 52.50170898 63.55078125 C52.50154282 64.70231689 52.50137665 65.85385254 52.50120544 67.0402832 C51.89134343 70.64163843 50.88242468 71.82027465 48 74 C45.0234375 74.51953125 45.0234375 74.51953125 42 74 C39.7265625 72.19921875 39.7265625 72.19921875 37.625 69.6875 C36.45904297 68.30111328 36.45904297 68.30111328 35.26953125 66.88671875 C32.53557735 63.40927997 29.92637894 59.86534742 27.3671875 56.2578125 C22.71172732 49.76674715 17.68342751 43.54216856 12.76123047 37.25292969 C9.83340909 33.50772097 6.91683265 29.75376946 4 26 C3.99413376 26.55710159 3.98826752 27.11420319 3.98222351 27.68818665 C3.91835586 33.47955461 3.83395404 39.27036344 3.73754883 45.0612793 C3.70426678 47.22331375 3.67624515 49.38543577 3.65356445 51.54760742 C3.62007892 54.65321218 3.567766 57.75801198 3.51171875 60.86328125 C3.50213387 62.31653557 3.50213387 62.31653557 3.49235535 63.79914856 C3.47256119 64.6998558 3.45276703 65.60056305 3.43237305 66.52856445 C3.41571846 67.71770195 3.41571846 67.71770195 3.39872742 68.93086243 C2.89810847 71.52875119 2.10261168 72.42974105 0 74 C-4.07794425 74.42478586 -5.53076119 74.31282587 -9 72 C-10.09263784 68.72208648 -10.13350055 66.29872056 -10.14526367 62.84790039 C-10.15164352 61.57970963 -10.15802338 60.31151886 -10.16459656 59.00489807 C-10.16612521 57.61915118 -10.16723919 56.23340379 -10.16796875 54.84765625 C-10.17118226 53.42663031 -10.1745464 52.00560471 -10.17805481 50.58457947 C-10.1840419 47.60626458 -10.18589512 44.62797869 -10.18530273 41.6496582 C-10.18520109 37.83528889 -10.19885731 34.02110564 -10.21607494 30.20678043 C-10.22719854 27.2719589 -10.22922184 24.3371823 -10.22869301 21.40234184 C-10.22987243 19.99614254 -10.23429209 18.58994204 -10.24202538 17.1837635 C-10.2518327 15.2163648 -10.24768104 13.24891152 -10.24291992 11.28149414 C-10.24434494 10.16247208 -10.24576996 9.04345001 -10.24723816 7.89051819 C-10.00219633 5.02567779 -9.58076716 3.37852937 -8 1 C-5.11138291 -0.44430855 -3.20352299 -0.37688506 0 0 Z " fill="#FFFFFF" transform="translate(11,229)"/>
<path d="M0 0 C3.08430214 2.44438245 4.08619986 5.27730279 5.4453125 8.91015625 C5.88230469 10.06451172 6.31929687 11.21886719 6.76953125 12.40820312 C7.21683594 13.61412109 7.66414063 14.82003906 8.125 16.0625 C9.02281036 18.44945473 9.92121721 20.83618522 10.8203125 23.22265625 C11.21492676 24.28234619 11.60954102 25.34203613 12.01611328 26.43383789 C12.92857037 28.93828374 12.92857037 28.93828374 14 31 C14.33733154 30.13721436 14.67466309 29.27442871 15.0222168 28.38549805 C16.28591279 25.17642369 17.5640386 21.9739101 18.85229492 18.7746582 C19.40601502 17.39092446 19.9539422 16.00485754 20.49584961 14.61645508 C21.27753999 12.61673201 22.07993853 10.62642983 22.88671875 8.63671875 C23.36326904 7.43748779 23.83981934 6.23825684 24.33081055 5.00268555 C26.1906906 1.65696889 27.51468491 0.50082562 31 -1 C34 -0.8125 34 -0.8125 37 1 C43.15636913 9.479902 46.20298371 21.27748718 50 31 C50.68804673 29.35439515 51.37538101 27.70849244 52.0625 26.0625 C52.51625 24.98226563 52.97 23.90203125 53.4375 22.7890625 C54.57933048 20.04778649 55.67284369 17.2907371 56.75 14.5234375 C57.050271 13.76409912 57.35054199 13.00476074 57.65991211 12.22241211 C58.25371537 10.71919202 58.83814823 9.21223078 59.41235352 7.70141602 C60.96932756 3.79475268 62.16027201 0.96612578 66 -1 C68.76779484 -0.86498562 70.47591559 -0.29698116 72.875 1.0625 C74.76542571 4.31823316 73.85584742 7.50528968 73 11 C71.27071157 15.55538725 69.23905618 19.95700889 67.1875 24.375 C66.11677202 26.7153608 65.04773288 29.05649506 63.98046875 31.3984375 C63.46935547 32.51524902 62.95824219 33.63206055 62.43164062 34.78271484 C60.78147231 38.49109105 59.27904084 42.24029309 57.84057617 46.03515625 C56.67199393 48.766713 55.50239598 50.3808026 53 52 C50 52.5 50 52.5 47 52 C43.46933775 49.10317813 41.92582538 46.10557592 40.203125 41.921875 C39.71972656 40.76171875 39.23632812 39.6015625 38.73828125 38.40625 C38.24714844 37.1996875 37.75601563 35.993125 37.25 34.75 C36.73919109 33.51524821 36.22748114 32.28086877 35.71484375 31.046875 C34.46765359 28.03479311 33.22977274 25.01922533 32 22 C30.12535343 24.81196986 28.97535001 27.31470785 27.72265625 30.4375 C27.07586914 32.02691406 27.07586914 32.02691406 26.41601562 33.6484375 C25.5142186 35.88145871 24.615775 38.11583713 23.72070312 40.3515625 C23.28822266 41.41117187 22.85574219 42.47078125 22.41015625 43.5625 C22.01965088 44.53316406 21.62914551 45.50382812 21.22680664 46.50390625 C20.04144536 48.91567415 19.10787126 50.35759033 17 52 C14.125 52.5 14.125 52.5 11 52 C6.28525225 48.15159127 4.27722416 43.92040413 2.01171875 38.4453125 C1.66365677 37.62553925 1.31559479 36.80576599 0.95698547 35.96115112 C0.22755931 34.2339687 -0.49571085 32.50417489 -1.21313477 30.77197266 C-2.30926543 28.13278796 -3.43142534 25.50580107 -4.55664062 22.87890625 C-5.2646136 21.19337646 -5.97104612 19.50719863 -6.67578125 17.8203125 C-7.01007645 17.04092316 -7.34437164 16.26153381 -7.688797 15.45852661 C-9.58016998 10.83183087 -10.57041031 7.08962849 -10 2 C-6.65359364 -1.05957153 -4.23600006 -1.5606316 0 0 Z " fill="#FFFFFF" transform="translate(174,251)"/>
<path d="M0 0 C0.89102417 -0.01260864 1.78204834 -0.02521729 2.70007324 -0.03820801 C3.65949829 -0.03011108 4.61892334 -0.02201416 5.60742188 -0.01367188 C6.59488403 -0.01749878 7.58234619 -0.02132568 8.59973145 -0.02526855 C10.68775451 -0.02799088 12.77581149 -0.02060734 14.86376953 -0.00390625 C18.06424822 0.01749838 21.26248196 -0.00369754 24.46289062 -0.02929688 C26.49023934 -0.02665366 28.51758666 -0.0215288 30.54492188 -0.01367188 C31.98405945 -0.02581726 31.98405945 -0.02581726 33.45227051 -0.03820801 C34.34329468 -0.02559937 35.23431885 -0.01299072 36.15234375 0 C36.93605347 0.00318237 37.71976318 0.00636475 38.52722168 0.00964355 C40.57617188 0.51757812 40.57617188 0.51757812 42.36437988 2.38586426 C43.57617188 4.51757812 43.57617188 4.51757812 43.38867188 7.14257812 C42.57617188 9.51757812 42.57617188 9.51757812 40.57617188 11.51757812 C37.99513881 11.69260808 35.52309025 11.74920091 32.94335938 11.71289062 C31.81560593 11.70864578 31.81560593 11.70864578 30.66506958 11.70431519 C28.2602761 11.69310687 25.85585306 11.66800164 23.45117188 11.64257812 C21.822271 11.63254914 20.19336429 11.62342315 18.56445312 11.61523438 C14.56810132 11.59486561 10.57255197 11.55571961 6.57617188 11.51757812 C6.57617188 17.78757813 6.57617188 24.05757812 6.57617188 30.51757812 C8.77917969 30.494375 10.9821875 30.47117188 13.25195312 30.44726562 C15.38663151 30.43166619 17.52130354 30.41952313 19.65600586 30.40771484 C21.13910771 30.39765992 22.62218975 30.38401409 24.10522461 30.36669922 C26.23751719 30.34242806 28.36954757 30.33109013 30.50195312 30.32226562 C32.42648315 30.30655518 32.42648315 30.30655518 34.38989258 30.29052734 C37.57617188 30.51757812 37.57617188 30.51757812 40.57617188 32.51757812 C40.88867188 36.01757812 40.88867188 36.01757812 40.57617188 39.51757812 C38.57617188 41.51757812 38.57617188 41.51757812 35.41162109 41.74462891 C34.06799224 41.74431202 32.72433777 41.73299993 31.38085938 41.71289062 C30.67341583 41.71006073 29.96597229 41.70723083 29.23709106 41.70431519 C26.97494678 41.6931095 24.71319673 41.66800492 22.45117188 41.64257812 C20.9186255 41.63254879 19.38607294 41.62342286 17.85351562 41.61523438 C14.09412653 41.59486932 10.33559109 41.5557233 6.57617188 41.51757812 C6.57617188 48.11757812 6.57617188 54.71757812 6.57617188 61.51757812 C9.9715625 61.48277344 9.9715625 61.48277344 13.43554688 61.44726562 C15.63313232 61.43165844 17.83071154 61.41951979 20.02832031 61.40771484 C21.55308811 61.39767069 23.07783671 61.38403281 24.60253906 61.36669922 C26.79692326 61.34238075 28.99105229 61.33107923 31.18554688 61.32226562 C32.50522461 61.31179199 33.82490234 61.30131836 35.18457031 61.29052734 C38.31831676 61.50031601 40.04526203 61.71211301 42.57617188 63.51757812 C43.62259787 66.35787725 43.78608619 67.88783519 42.82617188 70.76757812 C41.57617188 72.51757812 41.57617188 72.51757812 38.57617188 73.51757812 C37.20138427 73.62250257 35.822263 73.67592207 34.44360352 73.69458008 C33.20200218 73.71383293 33.20200218 73.71383293 31.93531799 73.73347473 C30.59931801 73.74455513 30.59931801 73.74455513 29.23632812 73.75585938 C28.31782578 73.76393112 27.39932343 73.77200287 26.45298767 73.78031921 C24.51042563 73.79414554 22.56783944 73.80487418 20.62524414 73.81274414 C17.65334329 73.82999297 14.68254479 73.87389569 11.7109375 73.91796875 C9.82357589 73.92809287 7.93620482 73.93660985 6.04882812 73.94335938 C4.71586449 73.96962151 4.71586449 73.96962151 3.35597229 73.99641418 C2.52508591 73.99348862 1.69419952 73.99056305 0.83813477 73.98754883 C0.10994034 73.99341507 -0.61825409 73.99928131 -1.36851501 74.00532532 C-4.41681156 73.28193282 -5.56595155 72.01017164 -7.42382812 69.51757812 C-7.92503357 66.5958252 -7.92503357 66.5958252 -7.92553711 63.16015625 C-7.93491806 61.87202026 -7.94429901 60.58388428 -7.95396423 59.25671387 C-7.94348591 57.85407852 -7.93211689 56.45144959 -7.91992188 55.04882812 C-7.92007689 53.60681078 -7.92156637 52.16479302 -7.92433167 50.72277832 C-7.92571509 47.70318137 -7.91316791 44.68405973 -7.89038086 41.66455078 C-7.86199573 37.79735608 -7.86473397 33.93095095 -7.87747097 30.06369781 C-7.88443178 27.08678463 -7.87663441 24.1100534 -7.86421394 21.13316345 C-7.8597033 19.70744017 -7.85935928 18.28169732 -7.86327934 16.85597229 C-7.86619513 14.86228207 -7.84751164 12.8685957 -7.82788086 10.875 C-7.82247787 9.74122925 -7.81707489 8.6074585 -7.81150818 7.43933105 C-7.12614958 2.27412211 -5.24852459 0.02131244 0 0 Z " fill="#FFFFFF" transform="translate(8.423828125,138.482421875)"/>
<path d="M0 0 C1.69563293 1.27058411 1.69563293 1.27058411 3 3 C3.33143468 6.00536961 3.48875756 8.81445728 3.51171875 11.82421875 C3.52966995 12.68561966 3.54762115 13.54702057 3.56611633 14.43452454 C3.62029298 17.18546658 3.65413823 19.93623441 3.6875 22.6875 C3.72066663 24.55275866 3.75515567 26.4179943 3.79101562 28.28320312 C3.87602356 32.85534318 3.94279943 37.42743091 4 42 C4.79555298 41.1968335 4.79555298 41.1968335 5.60717773 40.37744141 C6.31302002 39.66765137 7.0188623 38.95786133 7.74609375 38.2265625 C8.4414624 37.52611816 9.13683105 36.82567383 9.85327148 36.10400391 C12.49490904 33.51494074 15.23849723 31.0762102 18.0546875 28.6796875 C19.36068544 27.55201859 20.63714669 26.38929093 21.8828125 25.1953125 C26.33264463 21.01516717 26.33264463 21.01516717 29.75 20.9375 C32.20128354 22.09505056 33.50915816 22.72450456 35 25 C35.3984375 27.76171875 35.3984375 27.76171875 35 31 C33.31056343 33.15987513 31.81010888 34.80945817 29.8125 36.625 C29.32974609 37.0890625 28.84699219 37.553125 28.34960938 38.03125 C25.368273 40.86452001 22.24338689 43.47407164 19 46 C20.10668729 49.32006187 20.94572595 50.0582597 23.5625 52.25 C24.63371094 53.17039062 24.63371094 53.17039062 25.7265625 54.109375 C27.22190625 55.35292547 28.73740764 56.57269459 30.2734375 57.765625 C33.86446119 60.64362954 35.74150467 62.23743876 37.25 66.6875 C37 70 37 70 35.375 72.4375 C32.55144995 74.29509872 31.3141051 74.57996839 28 74 C25.6875 72.625 25.6875 72.625 24 71 C24 70.34 24 69.68 24 69 C23.42024414 68.7417041 22.84048828 68.4834082 22.24316406 68.21728516 C19.81555471 66.89990812 18.1079243 65.4252828 16.109375 63.5234375 C15.04589844 62.51796875 15.04589844 62.51796875 13.9609375 61.4921875 C13.23132813 60.79351562 12.50171875 60.09484375 11.75 59.375 C10.63238281 58.31539063 10.63238281 58.31539063 9.4921875 57.234375 C7.65744523 55.49372207 5.826927 53.74884777 4 52 C3.9906543 52.55985596 3.98130859 53.11971191 3.97167969 53.6965332 C3.91795493 56.23608146 3.83431813 58.77379111 3.75 61.3125 C3.72873047 62.63411133 3.72873047 62.63411133 3.70703125 63.98242188 C3.459702 70.48718117 3.459702 70.48718117 1.140625 73.07421875 C-1.8571955 74.37072141 -3.77012953 74.53831175 -7 74 C-9.65121655 71.37899573 -10.88430741 69.70285585 -11.49447632 65.99595642 C-11.49162628 64.88217117 -11.48877625 63.76838593 -11.48583984 62.62084961 C-11.4919931 61.35280991 -11.49814636 60.0847702 -11.50448608 58.77830505 C-11.49069027 57.4029772 -11.47615631 56.02765659 -11.4609375 54.65234375 C-11.4585512 53.23417834 -11.45764815 51.81600973 -11.4581604 50.39784241 C-11.45503827 47.43128558 -11.43851777 44.46521406 -11.41162109 41.4987793 C-11.37761072 37.70010577 -11.36999376 33.90196405 -11.37151146 30.10315609 C-11.37096717 27.17687422 -11.35999107 24.25070812 -11.34550858 21.3244648 C-11.33915423 19.9238631 -11.33520487 18.52324831 -11.33372116 17.12263298 C-11.3293756 15.16495915 -11.31027466 13.20733491 -11.29052734 11.24975586 C-11.27909195 9.58027138 -11.27909195 9.58027138 -11.26742554 7.87705994 C-11.00284311 5.03058722 -10.56786375 3.36826578 -9 1 C-5.95016004 -0.52491998 -3.3576631 -0.23562548 0 0 Z " fill="#FFFFFF" transform="translate(363,229)"/>
<path d="M0 0 C6.34790374 5.30588935 9.43878535 11.53803774 10.27734375 19.69921875 C10.58310588 28.46847666 8.60801849 36.11014872 3 43 C-5.00463156 49.26449426 -13.12640121 49.89659361 -23 49 C-30.38912782 47.04715908 -35.32568777 42.97336521 -39.25 36.4375 C-42.93482216 29.19945648 -43.10133239 21.07875574 -41.38671875 13.171875 C-38.90129298 6.03311904 -34.59242866 1.67891672 -28.125 -2.09375 C-19.18825757 -6.11528409 -8.25659144 -5.0710899 0 0 Z M-25 10 C-28.76593388 15.89996307 -28.69387278 22.15632327 -28 29 C-26.75947331 32.72158007 -25.75761336 34.35061712 -22.8125 36.875 C-18.0603582 38.77585672 -13.9396418 38.77585672 -9.1875 36.875 C-5.54139016 33.749763 -4.19602361 30.95755088 -3.71484375 26.15234375 C-3.52545668 19.50732774 -3.93608527 14.66415534 -8.3359375 9.40234375 C-13.096616 5.39041046 -20.36803635 6.47088483 -25 10 Z " fill="#FFFFFF" transform="translate(294,254)"/>
<path d="M0 0 C3.99778585 3.43995527 6.76450718 7.07944057 7.6875 12.3125 C7.80573721 14.96835862 7.87527622 17.59749521 7.890625 20.25390625 C7.89632507 21.01799301 7.90202515 21.78207977 7.90789795 22.56932068 C7.91732202 24.18055852 7.9238716 25.7918154 7.92773438 27.40307617 C7.93748012 29.86996677 7.96854267 32.3360377 8 34.80273438 C8.00652676 36.36978673 8.01177851 37.93684502 8.015625 39.50390625 C8.0279718 40.24145645 8.0403186 40.97900665 8.05303955 41.73890686 C8.03081473 46.83088909 8.03081473 46.83088909 6.28808594 49.27563477 C4.2954989 50.5664397 3.05198173 50.71436911 0.6875 50.6875 C-0.3334375 50.69910156 -0.3334375 50.69910156 -1.375 50.7109375 C-4.01693998 50.16763533 -4.72041689 49.50715002 -6.3125 47.3125 C-6.60744975 44.77791592 -6.72978776 42.47613558 -6.71875 39.94140625 C-6.72958618 39.2226683 -6.74042236 38.50393036 -6.75158691 37.76341248 C-6.78584992 35.46718337 -6.80143972 33.17145112 -6.8125 30.875 C-6.8270787 27.85499139 -6.86078371 24.83609033 -6.90625 21.81640625 C-6.90322876 21.12462784 -6.90020752 20.43284943 -6.89709473 19.72010803 C-6.96021336 15.65810303 -7.3558196 13.19811932 -10.3125 10.3125 C-13.37391344 9.48121732 -16.21918184 9.666702 -19.3125 10.3125 C-22.06819447 12.49409145 -23.74838747 14.18427494 -25.3125 17.3125 C-25.43161147 19.52786263 -25.49169083 21.7465085 -25.5234375 23.96484375 C-25.55150187 25.3118612 -25.58016631 26.65886625 -25.609375 28.00585938 C-25.65066581 30.13012399 -25.68755148 32.25415615 -25.71386719 34.37866211 C-25.74146442 36.42870853 -25.78732618 38.4777024 -25.8359375 40.52734375 C-25.85575684 41.75573975 -25.87557617 42.98413574 -25.89599609 44.24975586 C-26.3125 47.3125 -26.3125 47.3125 -27.72119141 49.20947266 C-29.69973392 50.58091406 -30.91640756 50.74546195 -33.3125 50.75 C-33.993125 50.76933594 -34.67375 50.78867188 -35.375 50.80859375 C-37.3125 50.3125 -37.3125 50.3125 -38.90869141 48.89868164 C-41.09293014 44.8747441 -40.74039498 40.9451292 -40.7109375 36.4375 C-40.71380768 35.47602051 -40.71667786 34.51454102 -40.71963501 33.52392578 C-40.72167451 31.49315806 -40.71615262 29.46237065 -40.70361328 27.43164062 C-40.68755823 24.32377177 -40.70346605 21.21720342 -40.72265625 18.109375 C-40.7206738 16.1354138 -40.71683008 14.1614534 -40.7109375 12.1875 C-40.71701019 11.25824707 -40.72308289 10.32899414 -40.7293396 9.37158203 C-40.66005526 3.01424579 -40.66005526 3.01424579 -39.03369141 -0.26953125 C-36.61658059 -2.26081914 -34.31145197 -2.28966555 -31.25390625 -2.16015625 C-29.3125 -1.6875 -29.3125 -1.6875 -26.8125 0.8125 C-26.3175 1.6375 -25.8225 2.4625 -25.3125 3.3125 C-24.6525 2.69375 -23.9925 2.075 -23.3125 1.4375 C-16.15954684 -3.62917515 -7.71864102 -3.93213788 0 0 Z " fill="#FFFFFF" transform="translate(363.3125,161.6875)"/>
<path d="M0 0 C6.48786254 6.3001971 8.18990897 13.02614763 8.36328125 21.828125 C8.24339844 22.54484375 8.12351563 23.2615625 8 24 C4.36743982 26.42170679 2.47421305 26.3044503 -1.85546875 26.4140625 C-2.51710526 26.43342865 -3.17874176 26.4527948 -3.86042786 26.4727478 C-5.96932164 26.53242687 -8.07827037 26.57888087 -10.1875 26.625 C-11.61916415 26.66319066 -13.05080559 26.70224303 -14.48242188 26.7421875 C-17.98807312 26.83811773 -21.49389445 26.92219197 -25 27 C-22.85709295 33.07939962 -22.85709295 33.07939962 -18 37 C-11.22586785 38.05813397 -6.06409407 36.85369133 0 34 C3.3125 33.625 3.3125 33.625 6 34 C8 37 8 37 8.0625 39.9375 C6.82491604 43.50465376 5.39611706 44.43495556 2.08203125 46.140625 C-6.2616389 49.58454138 -15.67852383 50.77180425 -24.4375 47.875 C-30.82707374 44.91965112 -35.75229457 40.51041829 -38.3359375 33.8828125 C-40.44711552 24.71781616 -40.56819752 14.24601825 -35.62109375 6.01953125 C-26.72049531 -5.06868416 -12.11906311 -7.48038723 0 0 Z M-23.75 10.875 C-25.35030061 13.32958502 -25.35030061 13.32958502 -26 18 C-18.74 18 -11.48 18 -4 18 C-4.41927833 11.51549533 -4.41927833 11.51549533 -6.5625 8.625 C-12.86630062 4.42246625 -18.64031229 5.4003346 -23.75 10.875 Z " fill="#FFFFFF" transform="translate(113,254)"/>
<path d="M0 0 C5.01619961 4.88062664 7.12400186 11.52590144 7.3125 18.4375 C7 22 7 22 5 24 C2.56255103 24.17488254 0.2406392 24.23177405 -2.1953125 24.1953125 C-2.90275604 24.1924826 -3.61019958 24.18965271 -4.33908081 24.18673706 C-6.6012251 24.17553137 -8.86297515 24.15042679 -11.125 24.125 C-12.65754637 24.11497067 -14.19009894 24.10584474 -15.72265625 24.09765625 C-19.48192301 24.07559086 -23.24089464 24.04105896 -27 24 C-26.4133042 25.46071439 -25.81138924 26.91532211 -25.203125 28.3671875 C-24.86958008 29.17784668 -24.53603516 29.98850586 -24.19238281 30.82373047 C-23.03518731 33.34123321 -23.03518731 33.34123321 -19.75 35.125 C-13.88984889 36.49236859 -9.89481296 35.86430065 -4.4375 33.375 C-0.43911678 31.77564671 1.85428856 32.06933008 6 33 C6.51821862 38.18218623 6.51821862 38.18218623 6 41 C0.20361706 46.24434647 -6.64792556 47.41029812 -14.25 47.4375 C-14.99564209 47.44136719 -15.74128418 47.44523437 -16.50952148 47.44921875 C-22.88790596 47.31646538 -27.70853628 45.64031902 -33 42 C-33 41.34 -33 40.68 -33 40 C-33.66 40 -34.32 40 -35 40 C-40.41506176 33.23117279 -41.89362159 25.55323518 -41 17 C-39.58255804 9.34104892 -36.64763421 2.20046667 -30.04296875 -2.34765625 C-19.94537595 -7.73432621 -8.93225769 -7.29502252 0 0 Z M-25 9 C-25.99 12.465 -25.99 12.465 -27 16 C-19.74 16 -12.48 16 -5 16 C-5.51701894 10.25646527 -5.51701894 10.25646527 -8 7.125 C-11.55889463 4.60411631 -13.57945742 4.31606802 -17.84765625 4.5859375 C-21.21782269 5.23428168 -22.79434582 6.39331778 -25 9 Z " fill="#FFFFFF" transform="translate(201,165)"/>
<path d="M0 0 C5.52674152 5.40392505 8.11538375 11.19978608 8.3125 18.875 C8.29246935 22.70753065 8.29246935 22.70753065 6 25 C3.56255103 25.17488254 1.2406392 25.23177405 -1.1953125 25.1953125 C-1.90275604 25.1924826 -2.61019958 25.18965271 -3.33908081 25.18673706 C-5.6012251 25.17553137 -7.86297515 25.15042679 -10.125 25.125 C-11.65754637 25.11497067 -13.19009894 25.10584474 -14.72265625 25.09765625 C-18.48192301 25.07559086 -22.24089464 25.04105896 -26 25 C-25.39689084 26.45942634 -24.78278899 27.9143133 -24.1640625 29.3671875 C-23.8232666 30.17784668 -23.4824707 30.98850586 -23.13134766 31.82373047 C-22.05810185 34.24221755 -22.05810185 34.24221755 -19.375 36.125 C-12.20398467 37.98415212 -6.41852662 36.4331654 0 33 C2.6875 32.5625 2.6875 32.5625 5 33 C6.9375 34.625 6.9375 34.625 8 37 C7.6875 40 7.6875 40 6 43 C-2.42758144 48.73292557 -12.15369983 48.91435141 -22 48 C-28.44372809 46.29892975 -32.83465745 41.96732128 -36.6875 36.6875 C-40.93910655 27.98182944 -40.98655932 19.43973246 -37.9609375 10.390625 C-35.10042976 3.27423989 -31.41376893 0.20774721 -24.5 -3.0546875 C-15.98416442 -6.27473783 -7.50792054 -5.14218628 0 0 Z M-24 10 C-24.99 13.465 -24.99 13.465 -26 17 C-18.74 17 -11.48 17 -4 17 C-5.51434805 10.14195338 -5.51434805 10.14195338 -10 6 C-15.6975733 4.96504755 -20.10249508 5.39385782 -24 10 Z " fill="#FFFFFF" transform="translate(306,164)"/>
<path d="M0 0 C4.9919219 4.19664023 7.73609715 9.84852419 8.40234375 16.28125 C8.43390029 19.22652703 8.39992634 22.07403158 8.0625 25 C7.0625 26 7.0625 26 4.01147461 26.11352539 C2.66258729 26.11336634 1.31369386 26.10767612 -0.03515625 26.09765625 C-1.09844398 26.09553383 -1.09844398 26.09553383 -2.18321228 26.09336853 C-4.45551712 26.08775443 -6.72772475 26.07519963 -9 26.0625 C-10.53710796 26.05748681 -12.07421745 26.05292359 -13.61132812 26.04882812 C-17.38675642 26.03778042 -21.16211171 26.02050641 -24.9375 26 C-24.51066368 27.27445454 -24.07052798 28.54445882 -23.625 29.8125 C-23.25955078 30.87404297 -23.25955078 30.87404297 -22.88671875 31.95703125 C-21.85497138 34.17762333 -20.80718707 35.43450686 -18.9375 37 C-12.41764433 38.99782733 -7.25307945 37.83156353 -1.26171875 34.91015625 C1.38522826 33.8736207 3.24373778 33.69309959 6.0625 34 C8.0625 36 8.0625 36 8.4375 38.875 C8.0625 42 8.0625 42 6.5625 44.1875 C0.493282 48.58768305 -5.65597948 49.50584192 -12.9375 49.4375 C-14.07058594 49.4674707 -14.07058594 49.4674707 -15.2265625 49.49804688 C-21.80754396 49.49239311 -26.84459675 47.55210092 -31.92578125 43.359375 C-38.93793236 34.83723265 -39.86123555 26.96935965 -38.9375 16 C-37.76383924 9.90674456 -34.56143534 5.09400117 -29.9375 1 C-21.01754957 -4.87541645 -9.33415043 -5.77243514 0 0 Z M-22.9375 10 C-24.97421629 13.00658118 -24.9375 14.19096596 -24.9375 18 C-18.0075 18 -11.0775 18 -3.9375 18 C-4.38730474 11.5314726 -4.38730474 11.5314726 -6.4375 8.5625 C-11.7007163 5.27298981 -18.2288777 6.00480532 -22.9375 10 Z " fill="#FFFFFF" transform="translate(468.9375,163)"/>
<path d="M0 0 C2.4375 2.0625 2.4375 2.0625 5 5 C6.2227753 6.21480068 7.45222901 7.42290778 8.6875 8.625 C10.81579628 10.71082474 12.32572318 12.48858477 14 15 C17.35800085 13.88066638 18.1056451 12.97594556 20.3125 10.3125 C20.92609375 9.59707031 21.5396875 8.88164062 22.171875 8.14453125 C23.30927087 6.81027841 24.44499557 5.47459681 25.578125 4.13671875 C28.04760942 1.41378724 29.5185112 0.08496861 33.1875 -0.5625 C36 0 36 0 37.875 1.125 C39.65952249 4.09920415 39.64846 5.56316202 39 9 C36.9427907 11.93106812 34.47937253 14.4248988 32 17 C30.67993926 18.49335056 29.36706527 19.99309399 28.0625 21.5 C27.04166667 22.66666667 26.02083333 23.83333333 25 25 C27.11385955 28.86514772 29.49744724 31.66182999 32.6875 34.6875 C34.16213769 36.08687707 35.60988505 37.51662786 37 39 C37 39.66 37 40.32 37 41 C37.66 41 38.32 41 39 41 C40.39935013 43.79870027 40.25265405 45.90498792 40 49 C38.9375 50.875 38.9375 50.875 37 52 C33.73828125 52.4296875 33.73828125 52.4296875 30 52 C27.71716305 50.09962788 26.09054133 48.50479423 24.25 46.25 C23.78207031 45.71117187 23.31414062 45.17234375 22.83203125 44.6171875 C20.88028647 42.35028846 19.03261892 40.04578618 17.296875 37.609375 C16.86890625 37.07828125 16.4409375 36.5471875 16 36 C13.88906545 35.76523616 13.88906545 35.76523616 12.51953125 37.46875 C11.95621094 38.1390625 11.39289063 38.809375 10.8125 39.5 C10.18988281 40.221875 9.56726563 40.94375 8.92578125 41.6875 C7.66299593 43.20386695 6.429654 44.74535283 5.23046875 46.3125 C0.85529293 51.8431963 0.85529293 51.8431963 -3.75 52.6875 C-7 52 -7 52 -8.9375 50.875 C-10.59277327 47.95392953 -10.49702314 46.34325719 -10 43 C-7.98583394 40.14152518 -5.55185997 37.75831431 -3.0625 35.3125 C-1.75771487 34.00006217 -0.45675003 32.68381215 0.83984375 31.36328125 C1.71177368 30.50150269 1.71177368 30.50150269 2.60131836 29.62231445 C4.23125448 27.93950809 4.23125448 27.93950809 5 25 C3.80882631 23.13064817 3.80882631 23.13064817 2 21.3125 C1.35933594 20.60996094 0.71867187 19.90742188 0.05859375 19.18359375 C-1.29333595 17.74957344 -2.65507717 16.32472777 -4.02734375 14.91015625 C-8.85545347 9.76609661 -8.85545347 9.76609661 -9.625 5.6875 C-9 3 -9 3 -7.875 1.125 C-5.02744985 -0.58353009 -3.26172661 -0.52187626 0 0 Z " fill="#FFFFFF" transform="translate(66,160)"/>
<path d="M0 0 C2.171875 1.140625 2.171875 1.140625 4 3 C4.390625 5.91796875 4.390625 5.91796875 4.25 9.1875 C4.21390625 10.27417969 4.1778125 11.36085937 4.140625 12.48046875 C4.07101563 13.72763672 4.07101563 13.72763672 4 15 C4.67546875 14.97679687 5.3509375 14.95359375 6.046875 14.9296875 C7.38492188 14.90261719 7.38492188 14.90261719 8.75 14.875 C9.63171875 14.85179687 10.5134375 14.82859375 11.421875 14.8046875 C14.1135858 15.00860498 15.69904974 15.63448279 18 17 C18.125 20.375 18.125 20.375 18 24 C16 26 16 26 13.1796875 26.1953125 C12.08914062 26.17210937 10.99859375 26.14890625 9.875 26.125 C8.77929688 26.10695313 7.68359375 26.08890625 6.5546875 26.0703125 C5.71164063 26.04710937 4.86859375 26.02390625 4 26 C4.13867261 30.10444167 4.28716103 34.2084704 4.4375 38.3125 C4.47681641 39.47974609 4.51613281 40.64699219 4.55664062 41.84960938 C4.59853516 42.96787109 4.64042969 44.08613281 4.68359375 45.23828125 C4.72025146 46.26993408 4.75690918 47.30158691 4.79467773 48.36450195 C4.90161242 51.10748258 4.90161242 51.10748258 6 54 C8.4960256 54.95762601 8.4960256 54.95762601 11.4375 55.5625 C16.8 56.8 16.8 56.8 19 59 C19.375 61.4375 19.375 61.4375 19 64 C17.24769963 66.20942221 15.8260571 66.87939566 13.046875 67.28515625 C5.95703652 67.57023717 -0.27464075 66.08750921 -5.9375 61.75 C-11.12940503 54.82745996 -10.24246626 46.84387129 -10.125 38.5625 C-10.11597656 37.35400391 -10.10695312 36.14550781 -10.09765625 34.90039062 C-10.07420168 31.93338722 -10.04137794 28.96679857 -10 26 C-13.02429199 26.08239746 -13.02429199 26.08239746 -16.04858398 26.16479492 C-18 26 -18 26 -20.0625 24.3125 C-21.26109611 21.35596292 -21.16822469 19.95950256 -20 17 C-16.88390372 14.57636956 -13.82627315 14.82607849 -10 15 C-10.04640625 14.25234375 -10.0928125 13.5046875 -10.140625 12.734375 C-10.43440289 4.71843554 -10.43440289 4.71843554 -8.375 1.3125 C-5.2932166 -0.39059083 -3.47515996 -0.50679416 0 0 Z " fill="#FFFFFF" transform="translate(143,236)"/>
<path d="M0 0 C2.30163882 3.45245824 2.34490322 4.94738713 2 9 C1.34 9.66 0.68 10.32 0 11 C-3.24493353 10.75963455 -6.01928538 10.52331412 -8.91796875 8.9765625 C-12.7692566 7.17014231 -16.84863933 7.46846435 -21 8 C-24.69856163 9.92633418 -25.70285673 11.32467438 -27.375 15.125 C-28.3319372 21.05801061 -28.15042386 26.4899843 -25.625 32 C-23.60493629 34.48623225 -21.95878552 35.87293204 -18.73046875 36.30078125 C-13.24642418 36.32605334 -9.87189865 35.71919925 -5 33 C-2.25 32.6875 -2.25 32.6875 0 33 C2 35 2 35 2.375 37.875 C2 41 2 41 0.4375 43.1875 C-5.28249479 47.44082946 -10.47769748 48.53635862 -17.4375 48.4375 C-18.56345581 48.42505249 -18.56345581 48.42505249 -19.7121582 48.41235352 C-27.32475183 48.17930647 -32.0028347 46.32736975 -37.3125 40.8125 C-42.77138689 33.80668058 -44.07496379 25.69526269 -43 17 C-41.40160515 10.46892428 -39.41235611 5.25256552 -34 1 C-32.63875 -0.0828125 -32.63875 -0.0828125 -31.25 -1.1875 C-21.32084421 -6.72491381 -9.63059684 -6.01912302 0 0 Z " fill="#FFFFFF" transform="translate(423,164)"/>
<path d="M0 0 C2.3125 2.0625 2.3125 2.0625 4.3125 5.0625 C3.75694444 10.61805556 3.75694444 10.61805556 2.3125 12.0625 C-1.28011138 12.39669641 -3.28416415 12.27761245 -6.5 10.5625 C-10.68447536 8.59333512 -14.13570808 8.44943578 -18.6875 9.0625 C-21.93934396 10.37707522 -23.24235123 11.16279791 -24.796875 14.3046875 C-26.72922262 20.28818497 -26.50145646 26.81442978 -24.375 32.6875 C-22.32442622 35.57349272 -20.46452485 36.79717444 -17.125 37.9375 C-12.79378898 38.09499858 -10.01715982 36.70171992 -6.09375 35 C-3.12205959 33.84219854 -0.83723329 33.51129667 2.3125 34.0625 C4.3125 37.0625 4.3125 37.0625 4.25 40 C3.0686682 43.85901722 1.68235926 44.91804411 -1.6875 47.0625 C-8.9339094 50.69225661 -19.0583039 50.254518 -26.8125 48.2578125 C-33.12255712 45.46830554 -36.60173047 41.14294624 -39.6875 35.0625 C-42.08401699 27.87294902 -41.99244978 17.05490562 -39.1875 9.9375 C-35.45812045 3.25569498 -30.2996153 -0.79179405 -23 -3 C-15.41524118 -4.55732691 -6.72978994 -4.22453967 0 0 Z " fill="#FFFFFF" transform="translate(151.6875,162.9375)"/>
<path d="M0 0 C3.73869084 0.62311514 4.69347647 1.53302727 7 4.5 C7.50120544 7.4597168 7.50120544 7.4597168 7.50170898 10.94921875 C7.51108994 12.25737549 7.52047089 13.56553223 7.53013611 14.91333008 C7.5196578 16.33806004 7.50828879 17.7627837 7.49609375 19.1875 C7.49624877 20.65193758 7.49773817 22.11637557 7.50050354 23.58081055 C7.50188704 26.64748305 7.48933854 29.71368758 7.46655273 32.78027344 C7.43816763 36.70799854 7.44090577 40.63494625 7.45364285 44.56272888 C7.46060324 47.58596416 7.45280675 50.60902026 7.44038582 53.63223267 C7.43587478 55.08028476 7.43553149 56.5283561 7.43945122 57.97640991 C7.44236661 60.00123264 7.42368496 62.0260516 7.40405273 64.05078125 C7.39864975 65.20231689 7.39324677 66.35385254 7.38768005 67.5402832 C6.9620808 70.78949152 6.27427542 72.17999334 4 74.5 C2.0625 74.99609375 2.0625 74.99609375 0 74.9375 C-1.0209375 74.93556641 -1.0209375 74.93556641 -2.0625 74.93359375 C-4.65067428 74.35438539 -5.40699936 73.62673021 -7 71.5 C-7.38768005 68.62257385 -7.38768005 68.62257385 -7.40405273 65.07250977 C-7.41091599 64.42500763 -7.41777924 63.77750549 -7.42485046 63.11038208 C-7.44314803 60.97050023 -7.43927701 58.83134953 -7.43359375 56.69140625 C-7.43815439 55.20311748 -7.44345961 53.71483083 -7.44947815 52.22654724 C-7.45841517 49.10691779 -7.45597986 45.98754425 -7.44604492 42.86791992 C-7.434558 38.87169147 -7.45475832 34.87634701 -7.48396206 30.88023472 C-7.50231689 27.80639542 -7.50203306 24.73276821 -7.49632454 21.65888786 C-7.49617121 20.18569639 -7.50222492 18.71249064 -7.51461601 17.23935127 C-7.52951093 15.1779669 -7.51886305 13.11821826 -7.50170898 11.05688477 C-7.50154282 9.88456802 -7.50137665 8.71225128 -7.50120544 7.50440979 C-6.71818534 2.81069925 -4.6641586 0.77735977 0 0 Z " fill="#FFFFFF" transform="translate(250,137.5)"/>
<path d="M0 0 C3.74150435 0.62358406 4.69520653 1.52684141 7 4.5 C7.50120544 7.50440979 7.50120544 7.50440979 7.50170898 11.05688477 C7.50711197 11.70613922 7.51251495 12.35539368 7.51808167 13.02432251 C7.53055815 15.1638185 7.51408934 17.301966 7.49609375 19.44140625 C7.49624875 20.93065969 7.49773784 22.41991355 7.50050354 23.90916443 C7.50188697 27.02710853 7.48933816 30.14459229 7.46655273 33.26245117 C7.438143 37.25977259 7.44091256 41.2563307 7.45364285 45.25370884 C7.46059548 48.32751492 7.45281603 51.40114437 7.44038582 54.4749279 C7.43586897 55.9489264 7.43553657 57.42294383 7.43945122 58.89694405 C7.44236015 60.95586196 7.42587499 63.01372512 7.40405273 65.07250977 C7.39864975 66.24403091 7.39324677 67.41555206 7.38768005 68.62257385 C7 71.5 7 71.5 5.59584045 73.37461853 C3.61458221 74.77179536 2.41196733 74.93293188 0 74.9375 C-0.680625 74.95683594 -1.36125 74.97617188 -2.0625 74.99609375 C-4 74.5 -4 74.5 -5.59584045 72.87207031 C-7.42821455 69.77660997 -7.38721223 67.63999032 -7.40405273 64.05078125 C-7.41673691 62.74262451 -7.42942108 61.43446777 -7.44248962 60.08666992 C-7.44043827 58.66194501 -7.43745031 57.23722117 -7.43359375 55.8125 C-7.43815584 54.34806069 -7.44346149 52.88362351 -7.44947815 51.41918945 C-7.4584063 48.35261324 -7.45598924 45.2862975 -7.44604492 42.21972656 C-7.43454816 38.29190273 -7.45477783 34.36497697 -7.48396206 30.43727112 C-7.50231553 27.41404522 -7.50203353 24.39103496 -7.49632454 21.36776733 C-7.49617126 19.91969542 -7.50222151 18.47160896 -7.51461601 17.02359009 C-7.52950715 14.99884983 -7.51622866 12.97396171 -7.50170898 10.94921875 C-7.50154282 9.79768311 -7.50137665 8.64614746 -7.50120544 7.4597168 C-6.71129931 2.7951656 -4.63132607 0.77188768 0 0 Z " fill="#FFFFFF" transform="translate(224,137.5)"/>
<path d="M0 0 C3.54973706 1.35947377 4.85472157 3.00083236 6.9375 6.125 C7.63875 5.50625 8.34 4.8875 9.0625 4.25 C13.33934885 1.08885085 16.3543008 0.01945339 21.6875 0.375 C24.9375 1.125 24.9375 1.125 26.9375 3.125 C27.49333564 8.34985505 27.49333564 8.34985505 25.7890625 10.7265625 C22.58048752 13.1499166 18.72596793 13.41946543 14.84765625 14.18359375 C11.5299624 15.25683431 10.10848403 16.43015904 7.9375 19.125 C6.83526022 22.43171935 6.79597261 24.95592785 6.76171875 28.4375 C6.73787109 29.67757813 6.71402344 30.91765625 6.68945312 32.1953125 C6.6464871 34.81493821 6.61523522 37.43478227 6.59570312 40.0546875 C6.56798828 41.29476562 6.54027344 42.53484375 6.51171875 43.8125 C6.49713623 44.95074219 6.48255371 46.08898437 6.4675293 47.26171875 C5.9375 50.125 5.9375 50.125 4.08911133 51.98828125 C1.1005807 53.56715321 -0.73257215 53.67998797 -4.0625 53.125 C-7.29590075 50.23456348 -8.32172849 47.90356737 -8.59594727 43.68945312 C-8.62897105 41.9286608 -8.6386214 40.16732518 -8.62890625 38.40625 C-8.63510483 37.47075317 -8.64130341 36.53525635 -8.64768982 35.57141113 C-8.6547786 33.59791095 -8.65163044 31.62435086 -8.63891602 29.65087891 C-8.62504425 26.63462173 -8.65914139 23.62146435 -8.69726562 20.60546875 C-8.69821682 18.68489508 -8.69635798 16.76431753 -8.69140625 14.84375 C-8.70466446 13.94466919 -8.71792267 13.04558838 -8.73158264 12.1192627 C-8.66500318 7.63369567 -8.50089457 5.70375194 -5.71459961 2.02539062 C-3.0625 0.125 -3.0625 0.125 0 0 Z " fill="#FFFFFF" transform="translate(321.0625,249.875)"/>
<path d="M0 0 C0.91587891 -0.01224609 1.83175781 -0.02449219 2.77539062 -0.03710938 C3.66033203 -0.03904297 4.54527344 -0.04097656 5.45703125 -0.04296875 C6.26760986 -0.04707764 7.07818848 -0.05118652 7.91333008 -0.05541992 C10.43693478 0.21414387 12.02994839 0.87157378 14.1875 2.1875 C16.47833123 5.16558059 16.65220393 8.44840003 16.58984375 12.1484375 C15.87966788 15.74758123 13.736647 17.638353 11.1875 20.1875 C11.63222656 20.79078125 12.07695313 21.3940625 12.53515625 22.015625 C13.10105469 22.81484375 13.66695312 23.6140625 14.25 24.4375 C14.81847656 25.22640625 15.38695313 26.0153125 15.97265625 26.828125 C17.1875 29.1875 17.1875 29.1875 17.05859375 31.421875 C16.62740234 32.29585937 16.62740234 32.29585937 16.1875 33.1875 C14.7025 33.6825 14.7025 33.6825 13.1875 34.1875 C10.10008284 31.28169561 7.64123406 28.44548453 5.25 24.9375 C3.05467843 21.90396474 2.55605245 21.29670073 -1.1875 20.1875 C-2.05375 20.1875 -2.92 20.1875 -3.8125 20.1875 C-3.80089844 21.04214844 -3.78929688 21.89679688 -3.77734375 22.77734375 C-3.76832031 23.88207031 -3.75929688 24.98679687 -3.75 26.125 C-3.73839844 27.22714844 -3.72679688 28.32929687 -3.71484375 29.46484375 C-3.8125 32.1875 -3.8125 32.1875 -4.8125 33.1875 C-7.3125 33.3125 -7.3125 33.3125 -9.8125 33.1875 C-11.72099948 31.27900052 -10.94309633 27.87271226 -10.9453125 25.34375 C-10.94626923 24.65945923 -10.94722595 23.97516846 -10.94821167 23.2701416 C-10.9488933 21.82088123 -10.94704023 20.37161782 -10.94287109 18.92236328 C-10.93752252 16.69687072 -10.9428166 14.47157999 -10.94921875 12.24609375 C-10.94855797 10.84114539 -10.9472768 9.43619715 -10.9453125 8.03125 C-10.94418457 6.74412109 -10.94305664 5.45699219 -10.94189453 4.13085938 C-10.67368705 -1.97010185 -4.92387105 0.00342173 0 0 Z M-3.8125 5.1875 C-3.8125 8.1575 -3.8125 11.1275 -3.8125 14.1875 C0.1475 14.1875 4.1075 14.1875 8.1875 14.1875 C8.5175 11.8775 8.8475 9.5675 9.1875 7.1875 C5.87379 4.97836 4.8428979 4.96268447 1 5.0625 C-0.35158203 5.08957031 -0.35158203 5.08957031 -1.73046875 5.1171875 C-2.76107422 5.15199219 -2.76107422 5.15199219 -3.8125 5.1875 Z " fill="#00AEEE" transform="translate(72.8125,80.8125)"/>
<path d="M0 0 C3.62053884 2.91654518 4.95698604 5.48027285 6 10 C6.56440655 16.9986412 5.46841944 22.65000219 1.25 28.375 C-3.82688308 32.04163778 -8.93293489 32.3703842 -14.92578125 31.46484375 C-19.43124326 30.45514511 -21.44388157 28.69139048 -24.3125 25.125 C-27.08735419 19.80181034 -26.73218807 13.81357327 -26 8 C-24.54034767 3.63593743 -22.05149687 0.27896699 -18 -2 C-11.78183751 -4.44284955 -5.48540766 -3.49071397 0 0 Z M-16.9375 5.375 C-19.94479317 9.55345025 -19.75705134 14.07093748 -19 19 C-17.73839764 22.02784566 -16.76836159 23.417105 -14.1875 25.375 C-11.08685996 26.26089715 -9.08383471 25.89945179 -6 25 C-3.21671464 23.26984964 -2.22534425 21.89983354 -1.4296875 18.72265625 C-0.66594321 13.31957165 -0.75980818 9.62884545 -4 5 C-8.81526558 1.78982295 -12.38729747 1.69611285 -16.9375 5.375 Z " fill="#00AEEE" transform="translate(227,83)"/>
<path d="M0 0 C4.09197967 2.30933506 6.25768833 5.71331244 8.94921875 9.49609375 C9.48224609 10.22505859 10.01527344 10.95402344 10.56445312 11.70507812 C12.68973349 14.62165784 14.75967279 17.55552481 16.76171875 20.55859375 C17.09171875 13.95859375 17.42171875 7.35859375 17.76171875 0.55859375 C21.76171875 -0.44140625 21.76171875 -0.44140625 23.76171875 0.55859375 C23.78637267 5.0975708 23.80455664 9.63650918 23.81665039 14.17553711 C23.82169015 15.72079141 23.82852195 17.26604091 23.8371582 18.8112793 C23.84923951 21.02784404 23.85495048 23.24434593 23.859375 25.4609375 C23.86453629 26.15573715 23.86969757 26.8505368 23.87501526 27.56639099 C23.87521152 29.23088705 23.82361004 30.89524874 23.76171875 32.55859375 C22.76171875 33.55859375 22.76171875 33.55859375 20.43481445 33.89453125 C17.76171875 33.55859375 17.76171875 33.55859375 15.81713867 31.72265625 C14.91378784 30.46582031 14.91378784 30.46582031 13.9921875 29.18359375 C13.33154297 28.28125 12.67089844 27.37890625 11.99023438 26.44921875 C11.31669922 25.4953125 10.64316406 24.54140625 9.94921875 23.55859375 C9.25634766 22.6046875 8.56347656 21.65078125 7.84960938 20.66796875 C6.13910441 18.30865155 4.44849543 15.93493323 2.76171875 13.55859375 C2.43171875 20.15859375 2.10171875 26.75859375 1.76171875 33.55859375 C-0.21828125 33.55859375 -2.19828125 33.55859375 -4.23828125 33.55859375 C-4.23828125 22.66859375 -4.23828125 11.77859375 -4.23828125 0.55859375 C-2.23828125 -0.44140625 -2.23828125 -0.44140625 0 0 Z " fill="#00AEEF" transform="translate(242.23828125,80.44140625)"/>
<path d="M0 0 C4.10235905 2.32099522 6.26062025 5.7605758 8.94921875 9.5625 C10.00405447 11.02166816 11.05999563 12.480038 12.1171875 13.9375 C12.80784302 14.90816406 12.80784302 14.90816406 13.51245117 15.8984375 C14.79951252 17.69426493 14.79951252 17.69426493 16.76171875 19.5625 C17.09171875 13.2925 17.42171875 7.0225 17.76171875 0.5625 C21.76171875 -0.4375 21.76171875 -0.4375 23.76171875 0.5625 C23.78637267 5.10147705 23.80455664 9.64041543 23.81665039 14.17944336 C23.82169015 15.72469766 23.82852195 17.26994716 23.8371582 18.81518555 C23.84923951 21.03175029 23.85495048 23.24825218 23.859375 25.46484375 C23.86453629 26.1596434 23.86969757 26.85444305 23.87501526 27.57029724 C23.87521152 29.2347933 23.82361004 30.89915499 23.76171875 32.5625 C22.76171875 33.5625 22.76171875 33.5625 20.58203125 34.109375 C15.94768786 33.21074886 14.22345199 29.54100827 11.63671875 25.8125 C11.11207031 25.08289063 10.58742187 24.35328125 10.046875 23.6015625 C9.06530107 22.234814 8.09039609 20.86323263 7.12451172 19.48535156 C5.70663314 17.4847762 4.23296493 15.52416157 2.76171875 13.5625 C2.43171875 20.1625 2.10171875 26.7625 1.76171875 33.5625 C-0.21828125 33.5625 -2.19828125 33.5625 -4.23828125 33.5625 C-4.23828125 22.6725 -4.23828125 11.7825 -4.23828125 0.5625 C-2.23828125 -0.4375 -2.23828125 -0.4375 0 0 Z " fill="#00AEEE" transform="translate(142.23828125,80.4375)"/>
<path d="M0 0 C1.65 0.33 3.3 0.66 5 1 C5.33 4.96 5.66 8.92 6 13 C7.32 11.68 8.64 10.36 10 9 C10.66 9 11.32 9 12 9 C12 8.34 12 7.68 12 7 C13.609375 5.23828125 13.609375 5.23828125 15.75 3.3125 C16.44609375 2.66925781 17.1421875 2.02601562 17.859375 1.36328125 C20 0 20 0 22.265625 0.29296875 C24 1 24 1 24.765625 2.71484375 C25 5 25 5 23.234375 7.25390625 C22.41453125 8.01574219 21.5946875 8.77757813 20.75 9.5625 C19.94046875 10.32691406 19.1309375 11.09132813 18.296875 11.87890625 C17.53890625 12.57886719 16.7809375 13.27882813 16 14 C14.99455053 14.99452067 13.99191632 15.99198114 13 17 C13.85464844 17.83144531 14.70929688 18.66289063 15.58984375 19.51953125 C16.70599177 20.61692048 17.82186282 21.71459145 18.9375 22.8125 C19.50146484 23.35970703 20.06542969 23.90691406 20.64648438 24.47070312 C24.88671875 28.66015625 24.88671875 28.66015625 26 32 C25.67 32.66 25.34 33.32 25 34 C22.17379401 34.51385563 20.50996394 34.34138082 18.109375 32.734375 C16.3001174 31.21930562 14.57825781 29.75564125 13 28 C13 27.34 13 26.68 13 26 C12.401875 25.731875 11.80375 25.46375 11.1875 25.1875 C9 24 9 24 6 21 C5.67 25.29 5.34 29.58 5 34 C3.02 34 1.04 34 -1 34 C-3.15336471 29.69327058 -2.18585478 23.92674995 -2.18530273 19.14160156 C-2.18749152 17.00826135 -2.20565919 14.87543634 -2.22460938 12.7421875 C-2.22754294 11.39062677 -2.22952798 10.03906358 -2.23046875 8.6875 C-2.23457764 7.45386719 -2.23868652 6.22023438 -2.24291992 4.94921875 C-2 2 -2 2 0 0 Z " fill="#00AEEE" transform="translate(96,80)"/>
<path d="M0 0 C3 1.8125 3 1.8125 3.9375 4.5 C3.958125 5.263125 3.97875 6.02625 4 6.8125 C0.01482622 7.91949272 -1.40313467 7.61093267 -5 5.8125 C-7.33203812 5.7347654 -9.66839059 5.72282272 -12 5.8125 C-12.66 7.1325 -13.32 8.4525 -14 9.8125 C-10.49749846 11.69846237 -7.11173003 13.12016362 -3.3125 14.25 C-0.6313652 15.13017051 0.88978633 15.71898537 3.0625 17.5625 C4.43970569 20.86779366 4.43533606 23.26762069 4 26.8125 C2.16173504 29.99411243 0.66693903 31.45463028 -2.5625 33.1875 C-8.59928555 34.28509737 -14.46846492 33.80525886 -20.1875 31.5625 C-22 29.8125 -22 29.8125 -22.3125 27.125 C-22.209375 26.361875 -22.10625 25.59875 -22 24.8125 C-18.59304418 23.67684806 -18.31365952 23.89096198 -15.25 25.3125 C-11.03344609 27.03816373 -8.39838162 26.82046245 -4 25.8125 C-4 24.4925 -4 23.1725 -4 21.8125 C-4.89203125 21.57015625 -5.7840625 21.3278125 -6.703125 21.078125 C-8.45882812 20.57539062 -8.45882812 20.57539062 -10.25 20.0625 C-11.41015625 19.73765625 -12.5703125 19.4128125 -13.765625 19.078125 C-17.13030533 17.76151096 -18.75743303 16.60634238 -21 13.8125 C-22.20056283 10.130774 -22.1662903 8.31137089 -20.9375 4.625 C-16.06280876 -2.4511647 -7.57760358 -2.72295816 0 0 Z " fill="#00AEEE" transform="translate(193,81.1875)"/>
<path d="M0 0 C3.3496767 1.75762503 4.40915694 5.02778374 5.9296875 8.328125 C6.2712085 9.04452148 6.61272949 9.76091797 6.96459961 10.49902344 C7.664258 11.97174807 8.35784577 13.44737166 9.04541016 14.92578125 C9.9844541 16.92834812 10.95522924 18.91094659 11.94140625 20.890625 C12.77091797 22.5921875 12.77091797 22.5921875 13.6171875 24.328125 C14.11347656 25.34390625 14.60976563 26.3596875 15.12109375 27.40625 C16.10263472 30.21534633 16.1365899 31.35717285 15.0546875 34.078125 C13.4046875 34.078125 11.7546875 34.078125 10.0546875 34.078125 C9.72855469 33.10617188 9.40242188 32.13421875 9.06640625 31.1328125 C7.29558442 27.66493202 7.29558442 27.66493202 3.26171875 27.2734375 C1.79764644 27.22043941 0.3322098 27.19800702 -1.1328125 27.203125 C-1.88240234 27.1825 -2.63199219 27.161875 -3.40429688 27.140625 C-5.25082037 27.09357982 -7.09819469 27.08237613 -8.9453125 27.078125 C-9.409375 28.5321875 -9.409375 28.5321875 -9.8828125 30.015625 C-10.9453125 33.078125 -10.9453125 33.078125 -11.9453125 34.078125 C-13.61148365 34.11876332 -15.27919345 34.120846 -16.9453125 34.078125 C-17.23312797 29.30351185 -16.42684078 26.19912864 -14.42578125 21.875 C-13.89791016 20.7303125 -13.37003906 19.585625 -12.82617188 18.40625 C-12.26736328 17.22546875 -11.70855469 16.0446875 -11.1328125 14.828125 C-10.58560547 13.631875 -10.03839844 12.435625 -9.47460938 11.203125 C-4.32801432 0.17381584 -4.32801432 0.17381584 0 0 Z M-0.9453125 10.078125 C-1.78105073 11.72273845 -2.61384132 13.36885013 -3.4453125 15.015625 C-3.909375 15.93214844 -4.3734375 16.84867188 -4.8515625 17.79296875 C-6.01726721 19.80622192 -6.01726721 19.80622192 -5.9453125 21.078125 C-2.6453125 21.078125 0.6546875 21.078125 4.0546875 21.078125 C3.6009375 19.634375 3.1471875 18.190625 2.6796875 16.703125 C2.42445312 15.89101562 2.16921875 15.07890625 1.90625 14.2421875 C1.15614467 11.91353315 1.15614467 11.91353315 -0.9453125 10.078125 Z " fill="#00ADEE" transform="translate(42.9453125,79.921875)"/>
<path d="M0 0 C1 1 1 1 1.0625 3.5625 C1.041875 4.366875 1.02125 5.17125 1 6 C-2.71599191 6.20086443 -3.77208445 6.1519437 -7 4 C-11.65417169 3.65777555 -11.65417169 3.65777555 -16 5 C-16 6.32 -16 7.64 -16 9 C-15.03578125 9.30292969 -14.0715625 9.60585937 -13.078125 9.91796875 C-11.80179751 10.34028299 -10.52577131 10.76350854 -9.25 11.1875 C-7.99703125 11.59355469 -6.7440625 11.99960938 -5.453125 12.41796875 C-1.70533827 14.13499774 -0.12474146 15.5016883 2 19 C2 22.91735401 1.63113355 25.13511329 -0.6875 28.3125 C-5.90241093 32.11797554 -10.44799606 32.28608711 -16.65625 31.47265625 C-19.68731429 30.86139162 -21.69366207 30.08314393 -24 28 C-24.8125 25.3125 -24.8125 25.3125 -25 23 C-21.59304418 21.86434806 -21.31365952 22.07846198 -18.25 23.5 C-14.03344609 25.22566373 -11.39838162 25.00796245 -7 24 C-7 22.68 -7 21.36 -7 20 C-7.80824219 19.75765625 -8.61648438 19.5153125 -9.44921875 19.265625 C-21.220351 15.57383443 -21.220351 15.57383443 -24 12 C-24.67155698 7.29910115 -24.70912638 5.20814124 -22.3125 1.125 C-15.51401522 -5.12225628 -7.61407151 -3.88473036 0 0 Z " fill="#00ADEE" transform="translate(307,83)"/>
<path d="M0 0 C0.9075 -0.03738281 1.815 -0.07476562 2.75 -0.11328125 C7.30691446 -0.17324065 9.55304071 -0.12182489 13.3515625 2.5859375 C15.90291716 6.33422397 15.96563928 8.58620724 15.7421875 12.99609375 C14.98082567 16.67600927 13.26122863 18.25345256 10.25 20.375 C7.13438704 21.41793824 4.26996578 21.48052587 1 21.4375 C0.10796875 21.42847656 -0.7840625 21.41945313 -1.703125 21.41015625 C-2.37859375 21.39855469 -3.0540625 21.38695313 -3.75 21.375 C-3.73839844 22.15746094 -3.72679687 22.93992187 -3.71484375 23.74609375 C-3.70582031 24.75800781 -3.69679688 25.76992187 -3.6875 26.8125 C-3.67589844 27.82183594 -3.66429687 28.83117187 -3.65234375 29.87109375 C-3.75 32.375 -3.75 32.375 -4.75 33.375 C-7.25 33.5 -7.25 33.5 -9.75 33.375 C-11.65849948 31.46650052 -10.88059633 28.06021226 -10.8828125 25.53125 C-10.88376923 24.84695923 -10.88472595 24.16266846 -10.88571167 23.4576416 C-10.8863933 22.00838123 -10.88454023 20.55911782 -10.88037109 19.10986328 C-10.87502252 16.88437072 -10.8803166 14.65907999 -10.88671875 12.43359375 C-10.88605797 11.02864539 -10.8847768 9.62369715 -10.8828125 8.21875 C-10.88168457 6.93162109 -10.88055664 5.64449219 -10.87939453 4.31835938 C-10.61291369 -1.74332567 -4.92292859 0.07563158 0 0 Z M-3.75 5.375 C-3.75 8.675 -3.75 11.975 -3.75 15.375 C2.64825263 15.84826369 2.64825263 15.84826369 8.25 13.375 C8.75 10.375 8.75 10.375 8.25 7.375 C4.0475546 4.57336974 1.24895065 5.23010288 -3.75 5.375 Z " fill="#00ADEF" transform="translate(11.75,80.625)"/>
<path d="M0 0 C3 1 3 1 5 3 C5.680625 3.144375 6.36125 3.28875 7.0625 3.4375 C7.701875 3.623125 8.34125 3.80875 9 4 C9.33 4.99 9.66 5.98 10 7 C10.66 5.68 11.32 4.36 12 3 C13.9375 3.3125 13.9375 3.3125 16 4 C16.33 4.99 16.66 5.98 17 7 C17.66 5.68 18.32 4.36 19 3 C19.99 3 20.98 3 22 3 C21.48964169 7.3890815 20.47785723 10.33708062 18 14 C15 13 15 13 13 11 C12.01 12.485 12.01 12.485 11 14 C10.01 13.67 9.02 13.34 8 13 C6.8125 9.4375 6.8125 9.4375 6 6 C5.01 6 4.02 6 3 6 C3 7.65 3 9.3 3 11 C3.99 11.33 4.98 11.66 6 12 C5.67 12.66 5.34 13.32 5 14 C1.125 13.125 1.125 13.125 0 12 C-0.04080783 10.00041636 -0.04254356 7.99954746 0 6 C-0.66 6 -1.32 6 -2 6 C-2.33 6.99 -2.66 7.98 -3 9 C-4.65 9 -6.3 9 -8 9 C-8 9.66 -8 10.32 -8 11 C-6.35 10.67 -4.7 10.34 -3 10 C-3 10.99 -3 11.98 -3 13 C-5.25 13.6875 -5.25 13.6875 -8 14 C-10.3125 12.5625 -10.3125 12.5625 -12 11 C-11.125 4.125 -11.125 4.125 -10 3 C-8.31391034 2.92794489 -6.62499341 2.91613932 -4.9375 2.9375 C-4.01839844 2.94652344 -3.09929688 2.95554687 -2.15234375 2.96484375 C-1.44207031 2.97644531 -0.73179687 2.98804688 0 3 C0 2.01 0 1.02 0 0 Z " fill="#FFFFFF" transform="translate(565,347)"/>
<path d="M0 0 C1.90849948 1.90849948 1.13059633 5.31478774 1.1328125 7.84375 C1.13376923 8.52804077 1.13472595 9.21233154 1.13571167 9.9173584 C1.1363933 11.36661877 1.13454023 12.81588218 1.13037109 14.26513672 C1.12502252 16.49062928 1.1303166 18.71592001 1.13671875 20.94140625 C1.13605797 22.34635461 1.1347768 23.75130285 1.1328125 25.15625 C1.13168457 26.44337891 1.13055664 27.73050781 1.12939453 29.05664062 C1 32 1 32 0 33 C-2.5 33.125 -2.5 33.125 -5 33 C-6 32 -6 32 -6.11352539 28.94897461 C-6.11336634 27.60008729 -6.10767612 26.25119386 -6.09765625 24.90234375 C-6.0962413 24.19348526 -6.09482635 23.48462677 -6.09336853 22.75428772 C-6.08775443 20.48198288 -6.07519963 18.20977525 -6.0625 15.9375 C-6.05748681 14.40039204 -6.05292359 12.86328255 -6.04882812 11.32617188 C-6.03778042 7.55074358 -6.02050641 3.77538829 -6 0 C-3.49749232 -1.25125384 -2.59701335 -0.83774624 0 0 Z " fill="#00AEEF" transform="translate(131,81)"/>
<path d="M0 0 C3 -0.3125 3 -0.3125 6 0 C6.66 0.66 7.32 1.32 8 2 C8.66 1.34 9.32 0.68 10 0 C13.22265625 -0.23046875 13.22265625 -0.23046875 17.0625 -0.1875 C18.96708984 -0.17783203 18.96708984 -0.17783203 20.91015625 -0.16796875 C24 0 24 0 25 1 C25.07179964 2.51928038 25.08392007 4.04167482 25.0625 5.5625 C25.05347656 6.38878906 25.04445313 7.21507812 25.03515625 8.06640625 C25.02355469 8.70449219 25.01195312 9.34257812 25 10 C24.01 10 23.02 10 22 10 C21.67 7.69 21.34 5.38 21 3 C20.34 3 19.68 3 19 3 C19 5.31 19 7.62 19 10 C18.01 10.495 18.01 10.495 17 11 C16.34 10.67 15.68 10.34 15 10 C15 7.69 15 5.38 15 3 C14.34 3 13.68 3 13 3 C13 5.31 13 7.62 13 10 C12.236875 9.79375 11.47375 9.5875 10.6875 9.375 C7.78114056 8.66608797 7.78114056 8.66608797 5 11 C1.8125 10.625 1.8125 10.625 -1 10 C-2.25 3.375 -2.25 3.375 0 0 Z M2 3 C1.67 4.32 1.34 5.64 1 7 C2.32 7 3.64 7 5 7 C5 5.68 5 4.36 5 3 C4.01 3 3.02 3 2 3 Z " fill="#FFFFFF" transform="translate(264,350)"/>
<path d="M0 0 C0.99 0 1.98 0 3 0 C3 4.62 3 9.24 3 14 C-4.48397041 15.34956843 -4.48397041 15.34956843 -6.9375 13.6875 C-8 12 -8 12 -9 10 C-10.65 10.33 -12.3 10.66 -14 11 C-12.35 11 -10.7 11 -9 11 C-9.33 12.32 -9.66 13.64 -10 15 C-12.3431213 14.74438677 -14.67843403 14.40729228 -17 14 C-18.38125018 11.23749964 -18.19079306 9.05268901 -18 6 C-17.34 5.34 -16.68 4.68 -16 4 C-12.375 4.375 -12.375 4.375 -9 5 C-9 5.66 -9 6.32 -9 7 C-8.34 7 -7.68 7 -7 7 C-6.67 6.01 -6.34 5.02 -6 4 C-4.35 4 -2.7 4 -1 4 C-0.67 2.68 -0.34 1.36 0 0 Z M-4 7 C-4 8.65 -4 10.3 -4 12 C-3.01 11.67 -2.02 11.34 -1 11 C-1 9.68 -1 8.36 -1 7 C-1.99 7 -2.98 7 -4 7 Z " fill="#FFFFFF" transform="translate(91,346)"/>
<path d="M0 0 C1.98 0 3.96 0 6 0 C6.33 1.65 6.66 3.3 7 5 C7.185625 4.360625 7.37125 3.72125 7.5625 3.0625 C9 1 9 1 12.4375 0.0625 C16 0 16 0 17.9375 1.125 C19.36066991 3.63647631 19.42674516 5.15503228 19 8 C17.875 9.875 17.875 9.875 16 11 C13 10.6875 13 10.6875 10 10 C6.97281864 9.90967424 6.97281864 9.90967424 3.9375 10.5625 C1 11 1 11 -1 10 C-1 9.01 -1 8.02 -1 7 C-0.01 7 0.98 7 2 7 C1.01 6.34 0.02 5.68 -1 5 C-0.67 3.35 -0.34 1.7 0 0 Z M12 3 C12 4.65 12 6.3 12 8 C12.99 8 13.98 8 15 8 C15 6.35 15 4.7 15 3 C14.01 3 13.02 3 12 3 Z " fill="#FFFFFF" transform="translate(389,350)"/>
<path d="M0 0 C0.99 0 1.98 0 3 0 C3.33 1.32 3.66 2.64 4 4 C5.2065625 4.185625 5.2065625 4.185625 6.4375 4.375 C7.283125 4.58125 8.12875 4.7875 9 5 C10.36952673 7.73905345 10.12621361 9.97087332 10 13 C9.67 13.66 9.34 14.32 9 15 C8.34 15 7.68 15 7 15 C5.64560332 12.29120665 5.93498549 9.99066732 6 7 C5.01 7.495 5.01 7.495 4 8 C3.59270772 10.32156597 3.25561323 12.6568787 3 15 C-3.42570647 15.36371923 -3.42570647 15.36371923 -5.875 13.8125 C-7.26554191 11.57218247 -7.60129186 9.59160292 -8 7 C-8.33 6.34 -8.66 5.68 -9 5 C-8.34 5 -7.68 5 -7 5 C-6.67 3.68 -6.34 2.36 -6 1 C-5.01 1.33 -4.02 1.66 -3 2 C-1.8125 4.5625 -1.8125 4.5625 -1 7 C-1.66 7 -2.32 7 -3 7 C-3 8.65 -3 10.3 -3 12 C-2.34 12 -1.68 12 -1 12 C-0.67 8.04 -0.34 4.08 0 0 Z " fill="#FFFFFF" transform="translate(108,346)"/>
<path d="M0 0 C0.99 0 1.98 0 3 0 C3.33 1.32 3.66 2.64 4 4 C5.65 4 7.3 4 9 4 C10.60725635 7.21451269 10.05748185 10.43612536 10 14 C9.01 14 8.02 14 7 14 C6.87625 13.030625 6.7525 12.06125 6.625 11.0625 C6.41875 10.051875 6.2125 9.04125 6 8 C5.34 7.67 4.68 7.34 4 7 C4.020625 7.94875 4.04125 8.8975 4.0625 9.875 C4 13 4 13 3 15 C-0.375 15.125 -0.375 15.125 -4 15 C-6 13 -6 13 -6.125 9.875 C-6.08375 8.92625 -6.0425 7.9775 -6 7 C-6.66 7 -7.32 7 -8 7 C-7.34 5.35 -6.68 3.7 -6 2 C-5.01 2 -4.02 2 -3 2 C-3 2.66 -3 3.32 -3 4 C-2.34 4 -1.68 4 -1 4 C-0.67 2.68 -0.34 1.36 0 0 Z M-3 7 C-2.65555119 9.47266765 -2.65555119 9.47266765 -2 12 C-1.34 12.33 -0.68 12.66 0 13 C0 10.69 0 8.38 0 6 C-1.2236068 5.9254644 -1.2236068 5.9254644 -3 7 Z " fill="#FFFFFF" transform="translate(303,346)"/>
<path d="M0 0 C1.5159375 0.061875 1.5159375 0.061875 3.0625 0.125 C5.0842996 0.125 7.10697908 0.0610523 9.125 -0.0625 C10.5790625 0.0303125 10.5790625 0.0303125 12.0625 0.125 C14.0625 3.125 14.0625 3.125 14.0625 6.125 C12.0825 6.125 10.1025 6.125 8.0625 6.125 C8.0625 6.785 8.0625 7.445 8.0625 8.125 C9.7125 7.795 11.3625 7.465 13.0625 7.125 C13.0625 8.115 13.0625 9.105 13.0625 10.125 C10.14767222 10.93467438 8.60136783 11.34345993 5.75 10.1875 C5.193125 9.836875 4.63625 9.48625 4.0625 9.125 C3.0725 9.785 2.0825 10.445 1.0625 11.125 C-1.5 10.9375 -1.5 10.9375 -3.9375 10.125 C-5.9375 7.125 -5.9375 7.125 -5.6875 4.5625 C-4.58165468 0.96850271 -3.79672443 0.16156274 0 0 Z M-1.9375 3.125 C-1.6075 4.775 -1.2775 6.425 -0.9375 8.125 C0.7125 8.125 2.3625 8.125 4.0625 8.125 C4.0625 6.475 4.0625 4.825 4.0625 3.125 C2.0825 3.125 0.1025 3.125 -1.9375 3.125 Z " fill="#FFFFFF" transform="translate(466.9375,349.875)"/>
<path d="M0 0 C1.7074998 1.28062485 3.37373596 2.61767557 5 4 C5 4.66 5 5.32 5 6 C4.01 6 3.02 6 2 6 C2.34786708 7.97536745 2.34786708 7.97536745 3 10 C3.66 10.33 4.32 10.66 5 11 C4.67 11.99 4.34 12.98 4 14 C1.525 13.01 1.525 13.01 -1 12 C-1 10.02 -1 8.04 -1 6 C-1.66 6 -2.32 6 -3 6 C-3 8.31 -3 10.62 -3 13 C-4.32 13 -5.64 13 -7 13 C-7 10.69 -7 8.38 -7 6 C-7.99 6.495 -7.99 6.495 -9 7 C-9.40729228 9.32156597 -9.74438677 11.6568787 -10 14 C-10.99 14 -11.98 14 -13 14 C-13 10.37 -13 6.74 -13 3 C-5.25 2.875 -5.25 2.875 -3 4 C-2.01 2.68 -1.02 1.36 0 0 Z " fill="#FFFFFF" transform="translate(237,347)"/>
<path d="M0 0 C0.99 0.33 1.98 0.66 3 1 C3.33 2.65 3.66 4.3 4 6 C5.32 5.34 6.64 4.68 8 4 C8 7.66666667 8 11.33333333 8 15 C7.4225 14.62875 6.845 14.2575 6.25 13.875 C4 12.70833333 4 12.70833333 1.75 13.875 C0.88375 14.431875 0.88375 14.431875 0 15 C-1 14 -1 14 -1.0625 10.4375 C-1.041875 9.303125 -1.02125 8.16875 -1 7 C-1.99 7.33 -2.98 7.66 -4 8 C-5.22969878 11.51190809 -5.22969878 11.51190809 -6 15 C-6.66 14.67 -7.32 14.34 -8 14 C-8 10.7 -8 7.4 -8 4 C-5.69 4 -3.38 4 -1 4 C-0.67 2.68 -0.34 1.36 0 0 Z " fill="#FFFFFF" transform="translate(362,346)"/>
<path d="M0 0 C4.59037956 1.14759489 5.33669182 2.29039218 8 6 C8.66 4.02 9.32 2.04 10 0 C10.99 0.33 11.98 0.66 13 1 C13.02694851 2.95825873 13.04637218 4.91662226 13.0625 6.875 C13.07410156 7.96554687 13.08570313 9.05609375 13.09765625 10.1796875 C13 13 13 13 12 15 C8.2047869 13.50902342 6.38957269 11.24299151 4 8 C3.67 10.31 3.34 12.62 3 15 C2.01 14.67 1.02 14.34 0 14 C0 9.38 0 4.76 0 0 Z " fill="#FFFFFF" transform="translate(539,346)"/>
<path d="M0 0 C2.47923801 -0.02685095 4.9581884 -0.04676547 7.4375 -0.0625 C8.14455078 -0.07087891 8.85160156 -0.07925781 9.58007812 -0.08789062 C11.38693559 -0.09653588 13.19387603 -0.05220011 15 0 C16 1 16 1 16.09765625 3.28515625 C16.08605469 4.20167969 16.07445312 5.11820312 16.0625 6.0625 C16.05347656 6.98160156 16.04445312 7.90070313 16.03515625 8.84765625 C16.02355469 9.55792969 16.01195312 10.26820313 16 11 C12.625 11.125 12.625 11.125 9 11 C8.34 10.34 7.68 9.68 7 9 C7.375 6.375 7.375 6.375 8 4 C6.68 4 5.36 4 4 4 C3.67 6.31 3.34 8.62 3 11 C2.01 10.67 1.02 10.34 0 10 C0 6.7 0 3.4 0 0 Z M9 3 C13 4 13 4 13 4 Z M11 6 C11.33 6.66 11.66 7.32 12 8 C12.33 7.34 12.66 6.68 13 6 C12.34 6 11.68 6 11 6 Z " fill="#FFFFFF" transform="translate(206,350)"/>
<path d="M0 0 C5.97873264 0.11935764 5.97873264 0.11935764 7.08984375 1.23046875 C7.21478991 2.85186312 7.26555999 4.47930997 7.27734375 6.10546875 C7.29152344 6.98976563 7.30570313 7.8740625 7.3203125 8.78515625 C7.08984375 11.23046875 7.08984375 11.23046875 5.08984375 14.23046875 C1.46484375 14.41796875 1.46484375 14.41796875 -1.91015625 14.23046875 C-3.49193551 10.07829818 -4.31494083 6.6830991 -3.91015625 2.23046875 C-1.91015625 0.23046875 -1.91015625 0.23046875 0 0 Z M0.08984375 3.23046875 C-0.24015625 4.22046875 -0.57015625 5.21046875 -0.91015625 6.23046875 C0.40984375 6.56046875 1.72984375 6.89046875 3.08984375 7.23046875 C3.08984375 5.91046875 3.08984375 4.59046875 3.08984375 3.23046875 C2.09984375 3.23046875 1.10984375 3.23046875 0.08984375 3.23046875 Z M-1.91015625 10.23046875 C-1.91015625 10.56046875 -1.91015625 10.89046875 -1.91015625 11.23046875 C-0.26015625 11.23046875 1.38984375 11.23046875 3.08984375 11.23046875 C3.08984375 10.90046875 3.08984375 10.57046875 3.08984375 10.23046875 C1.43984375 10.23046875 -0.21015625 10.23046875 -1.91015625 10.23046875 Z " fill="#FFFFFF" transform="translate(152.91015625,349.76953125)"/>
<path d="M0 0 C0.05389087 1.95803507 0.09274217 3.91648909 0.125 5.875 C0.14820313 6.96554687 0.17140625 8.05609375 0.1953125 9.1796875 C0 12 0 12 -2 14 C-5.625 14.125 -5.625 14.125 -9 14 C-9.33333333 12.33333333 -9.66666667 10.66666667 -10 9 C-10.2475 8.154375 -10.495 7.30875 -10.75 6.4375 C-11 4 -11 4 -10.0625 1.6875 C-6.83426664 -0.95378184 -4.08676931 -0.26798487 0 0 Z M-7 3 C-7 4.32 -7 5.64 -7 7 C-5.68 7 -4.36 7 -3 7 C-3.33 5.68 -3.66 4.36 -4 3 C-4.99 3 -5.98 3 -7 3 Z " fill="#FFFFFF" transform="translate(204,350)"/>
<path d="M0 0 C0.99 0 1.98 0 3 0 C3 0.99 3 1.98 3 3 C3.99 3 4.98 3 6 3 C5.67 3.99 5.34 4.98 5 6 C4.34 6 3.68 6 3 6 C3.34786708 7.97536745 3.34786708 7.97536745 4 10 C4.66 10.33 5.32 10.66 6 11 C5.67 11.99 5.34 12.98 5 14 C3.35 13.67 1.7 13.34 0 13 C0 10.69 0 8.38 0 6 C-1.32 6.33 -2.64 6.66 -4 7 C-4.66 9.31 -5.32 11.62 -6 14 C-6.99 13.67 -7.98 13.34 -9 13 C-9.125 5.25 -9.125 5.25 -8 3 C-5.36 3 -2.72 3 0 3 C0 2.01 0 1.02 0 0 Z " fill="#FFFFFF" transform="translate(67,347)"/>
<path d="M0 0 C3.5 0.1875 3.5 0.1875 5.5 1.1875 C5.5 2.1775 5.5 3.1675 5.5 4.1875 C3.19 4.1875 0.88 4.1875 -1.5 4.1875 C-0.530625 4.661875 0.43875 5.13625 1.4375 5.625 C4.5 7.1875 4.5 7.1875 5.5 8.1875 C5.75 10.625 5.75 10.625 5.5 13.1875 C1.3204355 15.97387633 -0.64668677 14.98312512 -5.5 14.1875 C-5.5 13.1975 -5.5 12.2075 -5.5 11.1875 C-3.19 11.1875 -0.88 11.1875 1.5 11.1875 C0.6028125 10.754375 0.6028125 10.754375 -0.3125 10.3125 C-2.5 9.1875 -2.5 9.1875 -5.5 7.1875 C-5.8125 4.6875 -5.8125 4.6875 -5.5 2.1875 C-3.5 0.1875 -3.5 0.1875 0 0 Z " fill="#FFFFFF" transform="translate(5.5,345.8125)"/>
<path d="M0 0 C2.97 0 5.94 0 9 0 C9 0.99 9 1.98 9 3 C7.02 3 5.04 3 3 3 C3 3.99 3 4.98 3 6 C4.98 6 6.96 6 9 6 C8.67 6.99 8.34 7.98 8 9 C6.35 9 4.7 9 3 9 C3 9.99 3 10.98 3 12 C4.98 12 6.96 12 9 12 C8.67 12.99 8.34 13.98 8 15 C1.25 15.125 1.25 15.125 -1 14 C-1.02694851 12.04174127 -1.04637218 10.08337774 -1.0625 8.125 C-1.07410156 7.03445313 -1.08570313 5.94390625 -1.09765625 4.8203125 C-1 2 -1 2 0 0 Z " fill="#FFFFFF" transform="translate(441,346)"/>
<path d="M0 0 C1.91015625 0.23046875 1.91015625 0.23046875 3.91015625 2.23046875 C4.22265625 5.73046875 4.22265625 5.73046875 3.91015625 9.23046875 C0.91015625 11.23046875 0.91015625 11.23046875 -2.08984375 11.23046875 C-2.41984375 12.22046875 -2.74984375 13.21046875 -3.08984375 14.23046875 C-4.40984375 13.90046875 -5.72984375 13.57046875 -7.08984375 13.23046875 C-7.11670928 11.25137477 -7.1361775 9.27217904 -7.15234375 7.29296875 C-7.16394531 6.19082031 -7.17554688 5.08867187 -7.1875 3.953125 C-7.00692287 -1.08136548 -4.45725027 0.08898322 0 0 Z M-3.08984375 3.23046875 C-2.75984375 4.88046875 -2.42984375 6.53046875 -2.08984375 8.23046875 C-1.09984375 7.90046875 -0.10984375 7.57046875 0.91015625 7.23046875 C0.58015625 5.91046875 0.25015625 4.59046875 -0.08984375 3.23046875 C-1.07984375 3.23046875 -2.06984375 3.23046875 -3.08984375 3.23046875 Z " fill="#FFFFFF" transform="translate(42.08984375,349.76953125)"/>
<path d="M0 0 C6.8359375 -0.1953125 6.8359375 -0.1953125 9 0 C11 2 11 2 11.25 4.5 C11 7 11 7 9 9 C8.175 9.103125 7.35 9.20625 6.5 9.3125 C5.2625 9.6528125 5.2625 9.6528125 4 10 C2.62533375 12.47636012 2.62533375 12.47636012 2 15 C1.34 14.67 0.68 14.34 0 14 C0 9.38 0 4.76 0 0 Z M3 3 C3 3.99 3 4.98 3 6 C4.65 6 6.3 6 8 6 C7.67 5.01 7.34 4.02 7 3 C5.68 3 4.36 3 3 3 Z " fill="#FFFFFF" transform="translate(331,346)"/>
<path d="M0 0 C0.99 0.33 1.98 0.66 3 1 C3 1.99 3 2.98 3 4 C3.804375 3.979375 4.60875 3.95875 5.4375 3.9375 C8 4 8 4 9 5 C9.07205511 6.68608966 9.08386068 8.37500659 9.0625 10.0625 C9.05347656 10.98160156 9.04445312 11.90070313 9.03515625 12.84765625 C9.02355469 13.55792969 9.01195312 14.26820313 9 15 C8.01 14.67 7.02 14.34 6 14 C6 11.69 6 9.38 6 7 C5.01 7 4.02 7 3 7 C3 9.31 3 11.62 3 14 C1.68 14 0.36 14 -1 14 C-1.02685938 11.85423363 -1.04633088 9.70837355 -1.0625 7.5625 C-1.07410156 6.36753906 -1.08570313 5.17257812 -1.09765625 3.94140625 C-1 1 -1 1 0 0 Z " fill="#FFFFFF" transform="translate(162,346)"/>
<path d="M0 0 C6.0546875 -0.1953125 6.0546875 -0.1953125 8 0 C10 2 10 2 10.25 5.5 C10 9 10 9 8 11 C6.68 11 5.36 11 4 11 C3.67 11.99 3.34 12.98 3 14 C2.01 14 1.02 14 0 14 C0 9.38 0 4.76 0 0 Z M4 3 C3.67 4.32 3.34 5.64 3 7 C4.32 7 5.64 7 7 7 C7 5.68 7 4.36 7 3 C6.01 3 5.02 3 4 3 Z " fill="#FFFFFF" transform="translate(24,350)"/>
<path d="M0 0 C0.99 0 1.98 0 3 0 C3.33 1.98 3.66 3.96 4 6 C4.66 5.34 5.32 4.68 6 4 C6.99 4 7.98 4 9 4 C8.814375 5.0725 8.62875 6.145 8.4375 7.25 C8.0695432 10.40391546 7.95534657 12.09818492 9 15 C7 14 5 13 3 12 C2.67 12.99 2.34 13.98 2 15 C1.34 14.67 0.68 14.34 0 14 C0 9.38 0 4.76 0 0 Z " fill="#FFFFFF" transform="translate(607,346)"/>
<path d="M0 0 C4.70588235 0.70588235 4.70588235 0.70588235 6 2 C6.37656384 6.8953299 6.2490571 10.17075413 3 14 C1.68 14 0.36 14 -1 14 C-0.79375 13.05125 -0.5875 12.1025 -0.375 11.125 C-0.25125 10.09375 -0.1275 9.0625 0 8 C-0.66 7.34 -1.32 6.68 -2 6 C-1.44444444 1.44444444 -1.44444444 1.44444444 0 0 Z " fill="#00AFEE" transform="translate(273,80)"/>
<path d="M0 0 C3 0.25 3 0.25 5 2.25 C5.33302312 5.3804173 5.47671956 7.42898298 3.875 10.1875 C2 11.25 2 11.25 -1.0625 11.125 C-4 10.25 -4 10.25 -6 7.25 C-5.5601518 2.74155593 -4.87125629 0.40593802 0 0 Z M-2 3.25 C-1.67 4.9 -1.34 6.55 -1 8.25 C-0.34 8.25 0.32 8.25 1 8.25 C1 6.6 1 4.95 1 3.25 C0.01 3.25 -0.98 3.25 -2 3.25 Z " fill="#FFFFFF" transform="translate(593,349.75)"/>
<path d="M0 0 C0.99 0.33 1.98 0.66 3 1 C3 3.31 3 5.62 3 8 C3.66 8 4.32 8 5 8 C5 5.69 5 3.38 5 1 C6.32 0.67 7.64 0.34 9 0 C9 3.3 9 6.6 9 10 C5.17943822 10.95514044 3.64458987 11.08352672 0 10 C-1.49106457 7.01787087 -1.11941467 4.28390342 -1 1 C-0.67 0.67 -0.34 0.34 0 0 Z " fill="#FFFFFF" transform="translate(13,350)"/>
<path d="M0 0 C3.0625 0.1875 3.0625 0.1875 5.0625 2.1875 C5.0625 3.5075 5.0625 4.8275 5.0625 6.1875 C3.0825 6.1875 1.1025 6.1875 -0.9375 6.1875 C-0.9375 6.8475 -0.9375 7.5075 -0.9375 8.1875 C1.0425 7.8575 3.0225 7.5275 5.0625 7.1875 C5.0625 8.1775 5.0625 9.1675 5.0625 10.1875 C2.3125 10.875 2.3125 10.875 -0.9375 11.1875 C-3.3125 9.75 -3.3125 9.75 -4.9375 8.1875 C-3.92735959 0.25068253 -3.92735959 0.25068253 0 0 Z " fill="#FFFFFF" transform="translate(318.9375,349.8125)"/>
<path d="M0 0 C0.721875 0.00257813 1.44375 0.00515625 2.1875 0.0078125 C2.909375 0.00523437 3.63125 0.00265625 4.375 0 C6.1875 0.1328125 6.1875 0.1328125 7.1875 1.1328125 C7.25929964 2.65209288 7.27142007 4.17448732 7.25 5.6953125 C7.24097656 6.52160156 7.23195313 7.34789062 7.22265625 8.19921875 C7.21105469 8.83730469 7.19945312 9.47539062 7.1875 10.1328125 C6.1975 10.1328125 5.2075 10.1328125 4.1875 10.1328125 C4.06375 9.1634375 3.94 8.1940625 3.8125 7.1953125 C3.503125 5.679375 3.503125 5.679375 3.1875 4.1328125 C2.5275 3.8028125 1.8675 3.4728125 1.1875 3.1328125 C1.1875 5.4428125 1.1875 7.7528125 1.1875 10.1328125 C-0.1325 10.1328125 -1.4525 10.1328125 -2.8125 10.1328125 C-2.83939216 8.65374358 -2.85884621 7.17453767 -2.875 5.6953125 C-2.88660156 4.87160156 -2.89820313 4.04789062 -2.91015625 3.19921875 C-2.78580037 0.56784823 -2.63135505 0.19281481 0 0 Z " fill="#FFFFFF" transform="translate(504.8125,349.8671875)"/>
<path d="M0 0 C2.9375 0.375 2.9375 0.375 4.9375 2.375 C5.27052312 5.5054173 5.41421956 7.55398298 3.8125 10.3125 C1.01079973 11.90013015 -1.03235644 11.11570176 -4.0625 10.375 C-5.25 7.625 -5.25 7.625 -6.0625 4.375 C-4.61058514 0.92670221 -3.72304593 0.45588318 0 0 Z M-2.0625 3.375 C-1.7325 5.025 -1.4025 6.675 -1.0625 8.375 C-0.4025 8.375 0.2575 8.375 0.9375 8.375 C1.2675 7.055 1.5975 5.735 1.9375 4.375 C0.6175 4.045 -0.7025 3.715 -2.0625 3.375 Z " fill="#FFFFFF" transform="translate(132.0625,349.625)"/>
<path d="M0 0 C3 0.25 3 0.25 5 2.25 C5.3125 5.75 5.3125 5.75 5 9.25 C2 11.25 2 11.25 -1.125 10.9375 C-4 10.25 -4 10.25 -5 9.25 C-5.1875 5.8125 -5.1875 5.8125 -5 2.25 C-3 0.25 -3 0.25 0 0 Z M-1 3.25 C-1.33 4.57 -1.66 5.89 -2 7.25 C-0.68 7.25 0.64 7.25 2 7.25 C1.67 5.93 1.34 4.61 1 3.25 C0.34 3.25 -0.32 3.25 -1 3.25 Z " fill="#FFFFFF" transform="translate(52,349.75)"/>
<path d="M0 0 C2 2 2 2 2 6 C0.02 6 -1.96 6 -4 6 C-4 6.66 -4 7.32 -4 8 C-2.02 7.67 -0.04 7.34 2 7 C2 7.99 2 8.98 2 10 C-3.30909091 11.32727273 -3.30909091 11.32727273 -6.375 9.875 C-8 8 -8 8 -8.4375 5.5 C-8 3 -8 3 -6.8125 1.1875 C-4.3864306 -0.40199375 -2.84602594 -0.36487512 0 0 Z " fill="#FFFFFF" transform="translate(499,350)"/>
<path d="M0 0 C6.0546875 -0.1953125 6.0546875 -0.1953125 8 0 C10 2 10 2 10.1953125 3.9453125 C10.13020833 5.96354167 10.06510417 7.98177083 10 10 C8.68 10 7.36 10 6 10 C6 7.69 6 5.38 6 3 C5.01 3.495 5.01 3.495 4 4 C3.34227572 7.02934491 3.34227572 7.02934491 3 10 C2.01 10 1.02 10 0 10 C0 6.7 0 3.4 0 0 Z " fill="#FFFFFF" transform="translate(409,350)"/>
<path d="M0 0 C1.134375 0.020625 2.26875 0.04125 3.4375 0.0625 C5.04475635 3.27701269 4.49498185 6.49862536 4.4375 10.0625 C1.0625 10.6875 1.0625 10.6875 -2.5625 11.0625 C-4.5625 9.0625 -4.5625 9.0625 -4.79296875 7.15234375 C-4.65181074 0.08161071 -4.65181074 0.08161071 0 0 Z M-2.5625 3.0625 C1.4375 4.0625 1.4375 4.0625 1.4375 4.0625 Z M-0.5625 6.0625 C-0.8925 6.7225 -1.2225 7.3825 -1.5625 8.0625 C-0.5725 7.7325 0.4175 7.4025 1.4375 7.0625 C0.7775 6.7325 0.1175 6.4025 -0.5625 6.0625 Z " fill="#FFFFFF" transform="translate(182.5625,349.9375)"/>
<path d="M0 0 C3.625 0.375 3.625 0.375 7 1 C7.33 2.32 7.66 3.64 8 5 C6.02 5.99 6.02 5.99 4 7 C4.99 7 5.98 7 7 7 C7 7.99 7 8.98 7 10 C4.08517222 10.80967438 2.53886783 11.21845993 -0.3125 10.0625 C-0.869375 9.711875 -1.42625 9.36125 -2 9 C-2.125 5.625 -2.125 5.625 -2 2 C-1.34 1.34 -0.68 0.68 0 0 Z " fill="#FFFFFF" transform="translate(525,350)"/>
<path d="M0 0 C2.875 -0.125 2.875 -0.125 6 0 C8 2 8 2 8.1953125 3.9453125 C8.13020833 5.96354167 8.06510417 7.98177083 8 10 C4.625 10.625 4.625 10.625 1 11 C0.34 10.34 -0.32 9.68 -1 9 C-0.625 6.625 -0.625 6.625 0 4 C0 2.68 0 1.36 0 0 Z M1 3 C5 4 5 4 5 4 Z M3 6 C3.33 6.66 3.66 7.32 4 8 C4.33 7.34 4.66 6.68 5 6 C4.34 6 3.68 6 3 6 Z " fill="#FFFFFF" transform="translate(344,350)"/>
<path d="M0 0 C1.27875 -0.061875 2.5575 -0.12375 3.875 -0.1875 C4.95394531 -0.23970703 4.95394531 -0.23970703 6.0546875 -0.29296875 C6.69664062 -0.19628906 7.33859375 -0.09960938 8 0 C10.4294516 3.6441774 10.16179575 5.71241272 10 10 C8.68 10 7.36 10 6 10 C6 7.69 6 5.38 6 3 C5.01 3.495 5.01 3.495 4 4 C3.26924352 6.3140622 2.59861742 8.64828869 2 11 C1.34 10.67 0.68 10.34 0 10 C0 6.7 0 3.4 0 0 Z " fill="#FFFFFF" transform="translate(377,350)"/>
<path d="M0 0 C0.99 0 1.98 0 3 0 C3.66 2.31 4.32 4.62 5 7 C5.66 4.69 6.32 2.38 7 0 C7.99 0 8.98 0 10 0 C10 3.3 10 6.6 10 10 C6.16046631 10.95988342 4.67125527 10.99223115 1 10 C0 9 0 9 -0.09765625 6.93359375 C-0.08605469 6.10988281 -0.07445312 5.28617187 -0.0625 4.4375 C-0.05347656 3.61121094 -0.04445312 2.78492188 -0.03515625 1.93359375 C-0.02355469 1.29550781 -0.01195312 0.65742188 0 0 Z " fill="#FFFFFF" transform="translate(138,350)"/>
<path d="M0 0 C1.98 0 3.96 0 6 0 C6 1.32 6 2.64 6 4 C6.66 4.33 7.32 4.66 8 5 C7.67 6.65 7.34 8.3 7 10 C1.25 11.125 1.25 11.125 -1 10 C-1 9.01 -1 8.02 -1 7 C-0.01 7 0.98 7 2 7 C1.01 6.34 0.02 5.68 -1 5 C-0.67 3.35 -0.34 1.7 0 0 Z " fill="#FFFFFF" transform="translate(426,350)"/>
<path d="M0 0 C0.61875 0.165 1.2375 0.33 1.875 0.5 C4.92432753 1.21748883 7.01229281 0.79672192 10 0 C9.62875 0.9075 9.2575 1.815 8.875 2.75 C7.69640701 5.88097015 7.69640701 5.88097015 8.875 8.375 C9.24625 8.91125 9.6175 9.4475 10 10 C6.66666667 10 3.33333333 10 0 10 C0 9.01 0 8.02 0 7 C0.66 7 1.32 7 2 7 C1.67 6.401875 1.34 5.80375 1 5.1875 C0 3 0 3 0 0 Z " fill="#FFFFFF" transform="translate(451,350)"/>
<path d="M0 0 C0.763125 0.103125 1.52625 0.20625 2.3125 0.3125 C1.9825 2.6225 1.6525 4.9325 1.3125 7.3125 C0.6525 7.3125 -0.0075 7.3125 -0.6875 7.3125 C-0.6875 9.6225 -0.6875 11.9325 -0.6875 14.3125 C-2.0075 14.3125 -3.3275 14.3125 -4.6875 14.3125 C-6.10797206 6.45711838 -6.10797206 6.45711838 -4.5625 2.25 C-2.6875 0.3125 -2.6875 0.3125 0 0 Z " fill="#FFFFFF" transform="translate(252.6875,345.6875)"/>
<path d="M0 0 C0.33 1.32 0.66 2.64 1 4 C-0.65 3.67 -2.3 3.34 -4 3 C-4 4.65 -4 6.3 -4 8 C-2.35 7.67 -0.7 7.34 1 7 C1 7.99 1 8.98 1 10 C-4.3864279 11.31668238 -4.3864279 11.31668238 -6.9375 10 C-8.61956323 6.83376334 -7.81395841 4.38105802 -7 1 C-4.53721199 -0.231394 -2.7204945 -0.07159196 0 0 Z " fill="#FFFFFF" transform="translate(521,350)"/>
<path d="M0 0 C1.134375 0.020625 2.26875 0.04125 3.4375 0.0625 C2.4375 3.0625 2.4375 3.0625 0.4375 4.0625 C-0.29325648 6.3765622 -0.96388258 8.71078869 -1.5625 11.0625 C-2.5525 10.7325 -3.5425 10.4025 -4.5625 10.0625 C-4.58939216 8.58343108 -4.60884621 7.10422517 -4.625 5.625 C-4.63660156 4.80128906 -4.64820312 3.97757812 -4.66015625 3.12890625 C-4.49001835 -0.47121162 -3.73687179 0.06555915 0 0 Z " fill="#FFFFFF" transform="translate(123.5625,349.9375)"/>
<path d="M0 0 C2.31 0 4.62 0 7 0 C7 0.99 7 1.98 7 3 C6.01 3 5.02 3 4 3 C4 5.31 4 7.62 4 10 C3.01 10.33 2.02 10.66 1 11 C0 10 0 10 -0.09765625 7.71484375 C-0.08605469 6.79832031 -0.07445312 5.88179688 -0.0625 4.9375 C-0.05347656 4.01839844 -0.04445313 3.09929687 -0.03515625 2.15234375 C-0.02355469 1.44207031 -0.01195312 0.73179687 0 0 Z " fill="#FFFFFF" transform="translate(599,350)"/>
<path d="M0 0 C0.99 0 1.98 0 3 0 C3 4.95 3 9.9 3 15 C2.01 14.67 1.02 14.34 0 14 C0 9.38 0 4.76 0 0 Z " fill="#FFFFFF" transform="translate(487,346)"/>
<path d="M0 0 C0.99 0 1.98 0 3 0 C3 4.62 3 9.24 3 14 C2.01 14 1.02 14 0 14 C0 9.38 0 4.76 0 0 Z " fill="#FFFFFF" transform="translate(482,346)"/>
<path d="M0 0 C2.31 0 4.62 0 7 0 C7 0.99 7 1.98 7 3 C6.01 3.33 5.02 3.66 4 4 C2.77030122 7.51190809 2.77030122 7.51190809 2 11 C1.34 10.67 0.68 10.34 0 10 C0 6.7 0 3.4 0 0 Z " fill="#FFFFFF" transform="translate(255,350)"/>
<path d="M0 0 C0.99 0 1.98 0 3 0 C3 3.3 3 6.6 3 10 C2.01 10.33 1.02 10.66 0 11 C0 7.37 0 3.74 0 0 Z " fill="#FFFFFF" transform="translate(372,350)"/>
<path d="M0 0 C1.32 0.33 2.64 0.66 4 1 C3.67 2.65 3.34 4.3 3 6 C2.01 5.67 1.02 5.34 0 5 C0 3.35 0 1.7 0 0 Z " fill="#FFFFFF" transform="translate(420,346)"/>
<path d="M0 0 C0.99 0 1.98 0 3 0 C3 0.99 3 1.98 3 3 C2.01 3 1.02 3 0 3 C0 2.01 0 1.02 0 0 Z " fill="#FFFFFF" transform="translate(372,346)"/>
</svg>
